<!-- <svg width="60" height="60" viewBox="0 0 60 60" fill="none" xmlns="http://www.w3.org/2000/svg">
<path d="M26.25 38.2437C26.25 35.3959 28.5585 33.0874 31.4062 33.0874H43.5938C50.416 33.3217 50.4206 43.1642 43.5937 43.3999H31.4062C28.5585 43.3999 26.25 41.0914 26.25 38.2437Z" fill="#196164"/>
<path d="M43.5939 44.3374H31.4064C23.3366 44.0325 23.3325 32.4562 31.4064 32.1499C31.4064 32.1499 43.5939 32.1499 43.5939 32.1499C51.6636 32.4548 51.6677 44.0311 43.5939 44.3374ZM31.4064 34.0249C25.8344 34.2005 25.8293 42.2853 31.4065 42.4624C31.4064 42.4624 43.5939 42.4624 43.5939 42.4624C49.1658 42.2868 49.1709 34.202 43.5938 34.0249H31.4064Z" fill="#196164"/>
<path d="M51.5625 11.5249C51.5864 10.2934 53.4138 10.2935 53.4375 11.5249C53.4136 12.7564 51.5862 12.7562 51.5625 11.5249ZM47.8125 11.5249C47.8364 10.2934 49.6638 10.2935 49.6875 11.5249C49.6636 12.7564 47.8362 12.7562 47.8125 11.5249ZM44.0625 11.5249C44.0864 10.2934 45.9138 10.2935 45.9375 11.5249C45.9136 12.7564 44.0862 12.7562 44.0625 11.5249Z" fill="#196164"/>
<path d="M25.3124 15.2749H21.5624C17.8548 15.3717 17.8536 20.803 21.5625 20.8999H25.3124C29.0199 20.8031 29.0212 15.3718 25.3124 15.2749Z" fill="#196164"/>
<path d="M36.5624 15.2749H32.8124C29.1048 15.3717 29.1036 20.803 32.8125 20.8999H36.5624C40.2699 20.8031 40.2712 15.3718 36.5624 15.2749Z" fill="#196164"/>
<path d="M50.6248 15.2749H44.0623C40.3556 15.3714 40.3528 20.8029 44.0624 20.8999H50.6248C54.3316 20.8034 54.3343 15.3719 50.6248 15.2749Z" fill="#196164"/>
<path d="M34.6876 24.6499H19.6876C18.4599 24.631 18.4515 22.7956 19.6876 22.7749H34.6876C35.9153 22.7938 35.9237 24.6292 34.6876 24.6499Z" fill="#196164"/>
<path d="M52.5 24.6499H38.4375C37.9193 24.6499 37.5 24.2306 37.5 23.7124C37.5 23.1942 37.9193 22.7749 38.4375 22.7749H52.5C53.728 22.7939 53.7358 24.6292 52.5 24.6499Z" fill="#196164"/>
<path d="M34.6876 28.3999H19.6876C18.4599 28.381 18.4515 26.5456 19.6876 26.5249H34.6876C35.9153 26.5438 35.9237 28.3792 34.6876 28.3999Z" fill="#196164"/>
<path d="M52.5 28.3999H38.4375C37.9193 28.3999 37.5 27.9806 37.5 27.4624C37.5 26.9442 37.9193 26.5249 38.4375 26.5249H52.5C53.728 26.5439 53.7358 28.3792 52.5 28.3999Z" fill="#196164"/>
<path d="M25.3123 32.1499H19.6873C18.4566 32.13 18.4537 30.2953 19.6873 30.2749H25.3123C26.543 30.2948 26.5459 32.1295 25.3123 32.1499Z" fill="#196164"/>
<path d="M52.5 6.8374H7.5C4.3982 6.8374 1.875 9.3606 1.875 12.4624V42.4624C1.875 45.5642 4.3982 48.0874 7.5 48.0874H52.5C55.6018 48.0874 58.125 45.5642 58.125 42.4624V12.4624C58.125 9.3606 55.6018 6.8374 52.5 6.8374ZM13.125 34.9624H8.4375C7.20648 34.9425 7.20412 33.1078 8.43754 33.0874C8.4375 33.0874 13.125 33.0874 13.125 33.0874C14.356 33.1074 14.3584 34.942 13.125 34.9624ZM13.125 31.2124H5.625C4.39485 31.1927 4.3909 29.3578 5.62504 29.3374C5.625 29.3374 13.125 29.3374 13.125 29.3374C14.3552 29.3571 14.3591 31.192 13.125 31.2124ZM13.125 27.4624H5.625C4.39485 27.4427 4.3909 25.6078 5.62504 25.5874C5.625 25.5874 13.125 25.5874 13.125 25.5874C14.3552 25.6071 14.3591 27.442 13.125 27.4624ZM9.375 23.7124C6.79046 23.7124 4.6875 21.6094 4.6875 19.0249C4.90781 12.821 13.8431 12.8226 14.0625 19.025C14.0625 21.6094 11.9595 23.7124 9.375 23.7124ZM56.25 42.4624C56.25 44.5306 54.5682 46.2124 52.5 46.2124H17.8125V8.7124H52.5C54.5682 8.7124 56.25 10.3942 56.25 12.4624V42.4624Z" fill="#196164"/>
<path d="M53.2711 48.6312L51.2826 46.6418L52.9928 44.9316C54.5174 43.5068 53.791 40.7288 51.7623 40.2349C51.7623 40.2349 39.8815 36.9079 39.8815 36.9079C38.531 36.4857 37.1458 37.8647 37.5708 39.2187C37.5707 39.2187 40.8978 51.0995 40.8978 51.0995C41.3924 53.1268 44.1689 53.8556 45.5944 52.3299C45.5944 52.33 47.3046 50.6198 47.3046 50.6198L49.2941 52.6083C49.6594 52.9736 50.14 53.1567 50.6197 53.1567C51.6314 53.2639 52.6105 51.8755 53.2711 51.2826C54.0026 50.552 54.0026 49.3618 53.2711 48.6312Z" fill="#C4F500"/>
</svg> -->


<svg xmlns="http://www.w3.org/2000/svg" width="82" height="82" viewBox="0 0 82 82" fill="none">
<circle cx="41" cy="41" r="41" fill="#2976C0"/>
<g clip-path="url(#clip0_864185_92)">
<g filter="url(#filter0_d_864185_92)">
<path d="M38 50.5948C38 48.3165 39.8468 46.4697 42.125 46.4697H51.875C57.3328 46.6572 57.3365 54.5312 51.875 54.7197H42.125C39.8468 54.7197 38 52.8729 38 50.5948Z" fill="white"/>
</g>
<g filter="url(#filter1_d_864185_92)">
<path d="M51.8753 55.4697H42.1253C35.6695 55.2258 35.6662 45.9648 42.1253 45.7197H51.8753C58.3311 45.9636 58.3344 55.2247 51.8753 55.4697ZM42.1253 47.2197C37.6677 47.3602 37.6637 53.828 42.1254 53.9697H51.8753C56.3329 53.8292 56.3369 47.3614 51.8753 47.2197H42.1253Z" fill="white"/>
</g>
<g filter="url(#filter2_d_864185_92)">
<path d="M58.25 29.2203C58.2691 28.2351 59.731 28.2352 59.75 29.2203C59.7309 30.2055 58.269 30.2054 58.25 29.2203ZM55.25 29.2203C55.2691 28.2351 56.731 28.2352 56.75 29.2203C56.7309 30.2055 55.269 30.2054 55.25 29.2203ZM52.25 29.2203C52.2691 28.2351 53.731 28.2352 53.75 29.2203C53.7309 30.2055 52.269 30.2054 52.25 29.2203Z" fill="white"/>
</g>
<g filter="url(#filter3_d_864185_92)">
<path d="M37.2498 32.2197H34.2498C31.2837 32.2972 31.2828 36.6422 34.2499 36.7197H37.2498C40.2158 36.6423 40.2169 32.2972 37.2498 32.2197Z" fill="white"/>
</g>
<g filter="url(#filter4_d_864185_92)">
<path d="M46.2498 32.2197H43.2498C40.2837 32.2972 40.2828 36.6422 43.2499 36.7197H46.2498C49.2158 36.6423 49.2169 32.2972 46.2498 32.2197Z" fill="white"/>
</g>
<g filter="url(#filter5_d_864185_92)">
<path d="M57.4998 32.2197H52.2498C49.2844 32.2969 49.2822 36.6421 52.2498 36.7197H57.4998C60.4652 36.6425 60.4674 32.2973 57.4998 32.2197Z" fill="white"/>
</g>
<g filter="url(#filter6_d_864185_92)">
<path d="M44.7499 39.7197H32.7499C31.7677 39.7046 31.761 38.2363 32.7499 38.2197H44.7499C45.732 38.2348 45.7388 39.7032 44.7499 39.7197Z" fill="white"/>
</g>
<g filter="url(#filter7_d_864185_92)">
<path d="M59 39.7197H47.75C47.3354 39.7197 47 39.3843 47 38.9697C47 38.5552 47.3354 38.2197 47.75 38.2197H59C59.9824 38.2349 59.9886 39.7032 59 39.7197Z" fill="white"/>
</g>
<g filter="url(#filter8_d_864185_92)">
<path d="M44.7499 42.7197H32.7499C31.7677 42.7046 31.761 41.2363 32.7499 41.2197H44.7499C45.732 41.2348 45.7388 42.7032 44.7499 42.7197Z" fill="white"/>
</g>
<g filter="url(#filter9_d_864185_92)">
<path d="M59 42.7197H47.75C47.3354 42.7197 47 42.3843 47 41.9697C47 41.5552 47.3354 41.2197 47.75 41.2197H59C59.9824 41.2349 59.9886 42.7032 59 42.7197Z" fill="white"/>
</g>
<g filter="url(#filter10_d_864185_92)">
<path d="M37.25 45.7197H32.75C31.7655 45.7038 31.7632 44.236 32.75 44.2197H37.25C38.2346 44.2356 38.2369 45.7034 37.25 45.7197Z" fill="white"/>
</g>
<g filter="url(#filter11_d_864185_92)">
<path d="M59 25.4697H23C20.5186 25.4697 18.5 27.4883 18.5 29.9697V53.9697C18.5 56.4512 20.5186 58.4697 23 58.4697H59C61.4814 58.4697 63.5 56.4512 63.5 53.9697V29.9697C63.5 27.4883 61.4814 25.4697 59 25.4697ZM27.5 47.9697H23.75C22.7652 47.9538 22.7633 46.486 23.75 46.4697H27.5C28.4848 46.4857 28.4867 47.9534 27.5 47.9697ZM27.5 44.9697H21.5C20.5159 44.954 20.5127 43.486 21.5 43.4697H27.5C28.4842 43.4855 28.4873 44.9534 27.5 44.9697ZM27.5 41.9697H21.5C20.5159 41.954 20.5127 40.486 21.5 40.4697H27.5C28.4842 40.4855 28.4873 41.9534 27.5 41.9697ZM24.5 38.9697C22.4324 38.9697 20.75 37.2873 20.75 35.2197C20.9262 30.2566 28.0745 30.2579 28.25 35.2198C28.25 37.2873 26.5676 38.9697 24.5 38.9697ZM62 53.9697C62 55.6243 60.6546 56.9697 59 56.9697H31.25V26.9697H59C60.6546 26.9697 62 28.3152 62 29.9697V53.9697Z" fill="white"/>
</g>
</g>
<defs>
<filter id="filter0_d_864185_92" x="34" y="46.4697" width="25.9697" height="16.25" filterUnits="userSpaceOnUse" color-interpolation-filters="sRGB">
<feFlood flood-opacity="0" result="BackgroundImageFix"/>
<feColorMatrix in="SourceAlpha" type="matrix" values="0 0 0 0 0 0 0 0 0 0 0 0 0 0 0 0 0 0 127 0" result="hardAlpha"/>
<feOffset dy="4"/>
<feGaussianBlur stdDeviation="2"/>
<feComposite in2="hardAlpha" operator="out"/>
<feColorMatrix type="matrix" values="0 0 0 0 0.0753677 0 0 0 0 0.216912 0 0 0 0 0.352941 0 0 0 0.31 0"/>
<feBlend mode="normal" in2="BackgroundImageFix" result="effect1_dropShadow_864185_92"/>
<feBlend mode="normal" in="SourceGraphic" in2="effect1_dropShadow_864185_92" result="shape"/>
</filter>
<filter id="filter1_d_864185_92" x="33.2822" y="45.7197" width="27.436" height="17.75" filterUnits="userSpaceOnUse" color-interpolation-filters="sRGB">
<feFlood flood-opacity="0" result="BackgroundImageFix"/>
<feColorMatrix in="SourceAlpha" type="matrix" values="0 0 0 0 0 0 0 0 0 0 0 0 0 0 0 0 0 0 127 0" result="hardAlpha"/>
<feOffset dy="4"/>
<feGaussianBlur stdDeviation="2"/>
<feComposite in2="hardAlpha" operator="out"/>
<feColorMatrix type="matrix" values="0 0 0 0 0.0753677 0 0 0 0 0.216912 0 0 0 0 0.352941 0 0 0 0.31 0"/>
<feBlend mode="normal" in2="BackgroundImageFix" result="effect1_dropShadow_864185_92"/>
<feBlend mode="normal" in="SourceGraphic" in2="effect1_dropShadow_864185_92" result="shape"/>
</filter>
<filter id="filter2_d_864185_92" x="48.25" y="28.4814" width="15.5" height="9.47754" filterUnits="userSpaceOnUse" color-interpolation-filters="sRGB">
<feFlood flood-opacity="0" result="BackgroundImageFix"/>
<feColorMatrix in="SourceAlpha" type="matrix" values="0 0 0 0 0 0 0 0 0 0 0 0 0 0 0 0 0 0 127 0" result="hardAlpha"/>
<feOffset dy="4"/>
<feGaussianBlur stdDeviation="2"/>
<feComposite in2="hardAlpha" operator="out"/>
<feColorMatrix type="matrix" values="0 0 0 0 0.0753677 0 0 0 0 0.216912 0 0 0 0 0.352941 0 0 0 0.31 0"/>
<feBlend mode="normal" in2="BackgroundImageFix" result="effect1_dropShadow_864185_92"/>
<feBlend mode="normal" in="SourceGraphic" in2="effect1_dropShadow_864185_92" result="shape"/>
</filter>
<filter id="filter3_d_864185_92" x="28.0249" y="32.2197" width="15.4497" height="12.5" filterUnits="userSpaceOnUse" color-interpolation-filters="sRGB">
<feFlood flood-opacity="0" result="BackgroundImageFix"/>
<feColorMatrix in="SourceAlpha" type="matrix" values="0 0 0 0 0 0 0 0 0 0 0 0 0 0 0 0 0 0 127 0" result="hardAlpha"/>
<feOffset dy="4"/>
<feGaussianBlur stdDeviation="2"/>
<feComposite in2="hardAlpha" operator="out"/>
<feColorMatrix type="matrix" values="0 0 0 0 0.0753677 0 0 0 0 0.216912 0 0 0 0 0.352941 0 0 0 0.31 0"/>
<feBlend mode="normal" in2="BackgroundImageFix" result="effect1_dropShadow_864185_92"/>
<feBlend mode="normal" in="SourceGraphic" in2="effect1_dropShadow_864185_92" result="shape"/>
</filter>
<filter id="filter4_d_864185_92" x="37.0249" y="32.2197" width="15.4497" height="12.5" filterUnits="userSpaceOnUse" color-interpolation-filters="sRGB">
<feFlood flood-opacity="0" result="BackgroundImageFix"/>
<feColorMatrix in="SourceAlpha" type="matrix" values="0 0 0 0 0 0 0 0 0 0 0 0 0 0 0 0 0 0 127 0" result="hardAlpha"/>
<feOffset dy="4"/>
<feGaussianBlur stdDeviation="2"/>
<feComposite in2="hardAlpha" operator="out"/>
<feColorMatrix type="matrix" values="0 0 0 0 0.0753677 0 0 0 0 0.216912 0 0 0 0 0.352941 0 0 0 0.31 0"/>
<feBlend mode="normal" in2="BackgroundImageFix" result="effect1_dropShadow_864185_92"/>
<feBlend mode="normal" in="SourceGraphic" in2="effect1_dropShadow_864185_92" result="shape"/>
</filter>
<filter id="filter5_d_864185_92" x="46.0249" y="32.2197" width="17.6997" height="12.5" filterUnits="userSpaceOnUse" color-interpolation-filters="sRGB">
<feFlood flood-opacity="0" result="BackgroundImageFix"/>
<feColorMatrix in="SourceAlpha" type="matrix" values="0 0 0 0 0 0 0 0 0 0 0 0 0 0 0 0 0 0 127 0" result="hardAlpha"/>
<feOffset dy="4"/>
<feGaussianBlur stdDeviation="2"/>
<feComposite in2="hardAlpha" operator="out"/>
<feColorMatrix type="matrix" values="0 0 0 0 0.0753677 0 0 0 0 0.216912 0 0 0 0 0.352941 0 0 0 0.31 0"/>
<feBlend mode="normal" in2="BackgroundImageFix" result="effect1_dropShadow_864185_92"/>
<feBlend mode="normal" in="SourceGraphic" in2="effect1_dropShadow_864185_92" result="shape"/>
</filter>
<filter id="filter6_d_864185_92" x="28.0107" y="38.2197" width="21.4785" height="9.5" filterUnits="userSpaceOnUse" color-interpolation-filters="sRGB">
<feFlood flood-opacity="0" result="BackgroundImageFix"/>
<feColorMatrix in="SourceAlpha" type="matrix" values="0 0 0 0 0 0 0 0 0 0 0 0 0 0 0 0 0 0 127 0" result="hardAlpha"/>
<feOffset dy="4"/>
<feGaussianBlur stdDeviation="2"/>
<feComposite in2="hardAlpha" operator="out"/>
<feColorMatrix type="matrix" values="0 0 0 0 0.0753677 0 0 0 0 0.216912 0 0 0 0 0.352941 0 0 0 0.31 0"/>
<feBlend mode="normal" in2="BackgroundImageFix" result="effect1_dropShadow_864185_92"/>
<feBlend mode="normal" in="SourceGraphic" in2="effect1_dropShadow_864185_92" result="shape"/>
</filter>
<filter id="filter7_d_864185_92" x="43" y="38.2197" width="20.7393" height="9.5" filterUnits="userSpaceOnUse" color-interpolation-filters="sRGB">
<feFlood flood-opacity="0" result="BackgroundImageFix"/>
<feColorMatrix in="SourceAlpha" type="matrix" values="0 0 0 0 0 0 0 0 0 0 0 0 0 0 0 0 0 0 127 0" result="hardAlpha"/>
<feOffset dy="4"/>
<feGaussianBlur stdDeviation="2"/>
<feComposite in2="hardAlpha" operator="out"/>
<feColorMatrix type="matrix" values="0 0 0 0 0.0753677 0 0 0 0 0.216912 0 0 0 0 0.352941 0 0 0 0.31 0"/>
<feBlend mode="normal" in2="BackgroundImageFix" result="effect1_dropShadow_864185_92"/>
<feBlend mode="normal" in="SourceGraphic" in2="effect1_dropShadow_864185_92" result="shape"/>
</filter>
<filter id="filter8_d_864185_92" x="28.0107" y="41.2197" width="21.4785" height="9.5" filterUnits="userSpaceOnUse" color-interpolation-filters="sRGB">
<feFlood flood-opacity="0" result="BackgroundImageFix"/>
<feColorMatrix in="SourceAlpha" type="matrix" values="0 0 0 0 0 0 0 0 0 0 0 0 0 0 0 0 0 0 127 0" result="hardAlpha"/>
<feOffset dy="4"/>
<feGaussianBlur stdDeviation="2"/>
<feComposite in2="hardAlpha" operator="out"/>
<feColorMatrix type="matrix" values="0 0 0 0 0.0753677 0 0 0 0 0.216912 0 0 0 0 0.352941 0 0 0 0.31 0"/>
<feBlend mode="normal" in2="BackgroundImageFix" result="effect1_dropShadow_864185_92"/>
<feBlend mode="normal" in="SourceGraphic" in2="effect1_dropShadow_864185_92" result="shape"/>
</filter>
<filter id="filter9_d_864185_92" x="43" y="41.2197" width="20.7393" height="9.5" filterUnits="userSpaceOnUse" color-interpolation-filters="sRGB">
<feFlood flood-opacity="0" result="BackgroundImageFix"/>
<feColorMatrix in="SourceAlpha" type="matrix" values="0 0 0 0 0 0 0 0 0 0 0 0 0 0 0 0 0 0 127 0" result="hardAlpha"/>
<feOffset dy="4"/>
<feGaussianBlur stdDeviation="2"/>
<feComposite in2="hardAlpha" operator="out"/>
<feColorMatrix type="matrix" values="0 0 0 0 0.0753677 0 0 0 0 0.216912 0 0 0 0 0.352941 0 0 0 0.31 0"/>
<feBlend mode="normal" in2="BackgroundImageFix" result="effect1_dropShadow_864185_92"/>
<feBlend mode="normal" in="SourceGraphic" in2="effect1_dropShadow_864185_92" result="shape"/>
</filter>
<filter id="filter10_d_864185_92" x="28.0107" y="44.2197" width="13.9785" height="9.5" filterUnits="userSpaceOnUse" color-interpolation-filters="sRGB">
<feFlood flood-opacity="0" result="BackgroundImageFix"/>
<feColorMatrix in="SourceAlpha" type="matrix" values="0 0 0 0 0 0 0 0 0 0 0 0 0 0 0 0 0 0 127 0" result="hardAlpha"/>
<feOffset dy="4"/>
<feGaussianBlur stdDeviation="2"/>
<feComposite in2="hardAlpha" operator="out"/>
<feColorMatrix type="matrix" values="0 0 0 0 0.0753677 0 0 0 0 0.216912 0 0 0 0 0.352941 0 0 0 0.31 0"/>
<feBlend mode="normal" in2="BackgroundImageFix" result="effect1_dropShadow_864185_92"/>
<feBlend mode="normal" in="SourceGraphic" in2="effect1_dropShadow_864185_92" result="shape"/>
</filter>
<filter id="filter11_d_864185_92" x="15.7" y="25.4697" width="52.6" height="41.8" filterUnits="userSpaceOnUse" color-interpolation-filters="sRGB">
<feFlood flood-opacity="0" result="BackgroundImageFix"/>
<feColorMatrix in="SourceAlpha" type="matrix" values="0 0 0 0 0 0 0 0 0 0 0 0 0 0 0 0 0 0 127 0" result="hardAlpha"/>
<feOffset dx="1" dy="5"/>
<feGaussianBlur stdDeviation="1.9"/>
<feComposite in2="hardAlpha" operator="out"/>
<feColorMatrix type="matrix" values="0 0 0 0 0 0 0 0 0 0 0 0 0 0 0 0 0 0 0.08 0"/>
<feBlend mode="normal" in2="BackgroundImageFix" result="effect1_dropShadow_864185_92"/>
<feBlend mode="normal" in="SourceGraphic" in2="effect1_dropShadow_864185_92" result="shape"/>
</filter>
<clipPath id="clip0_864185_92">
<rect width="48" height="48" fill="white" transform="translate(17 20)"/>
</clipPath>
</defs>
</svg>