<!-- <svg width="60" height="60" viewBox="0 0 60 60" fill="none" xmlns="http://www.w3.org/2000/svg">
<path d="M49.4211 40.3125C46.6106 40.1472 44.3899 38.9111 43.4564 36.5625H27.1875C24.0857 36.5625 21.5625 34.0393 21.5625 30.9375V13.125C21.5625 10.0232 24.0857 7.5 27.1875 7.5H52.5C55.6018 7.5 58.125 10.0232 58.125 13.125V30.9375C58.125 34.0393 55.6018 36.5625 52.5 36.5625H49.368C49.2508 37.3636 49.5007 38.1464 50.0739 38.7021C50.6803 39.2514 50.2371 40.3405 49.4211 40.3125ZM27.1875 9.375C25.1193 9.375 23.4375 11.0568 23.4375 13.125V30.9375C23.4375 33.0057 25.1193 34.6875 27.1875 34.6875H44.1559C44.5981 34.6875 44.9808 34.997 45.0723 35.4291C45.3567 36.7291 46.3094 37.5859 47.6038 38.0676C47.3762 37.1674 47.2734 34.7716 48.6492 34.6875C48.6493 34.6875 52.5 34.6875 52.5 34.6875C54.5682 34.6875 56.25 33.0057 56.25 30.9375V13.125C56.25 11.0568 54.5682 9.375 52.5 9.375H27.1875Z" fill="#196164"/>
<path d="M49.6875 15H44.0625C41.9914 15 40.3125 16.6789 40.3125 18.75V24.375C40.3125 26.4461 41.9914 28.125 44.0625 28.125H49.6875C51.7586 28.125 53.4375 26.4461 53.4375 24.375V18.75C53.4375 16.6789 51.7586 15 49.6875 15Z" fill="#196164"/>
<path d="M32.8125 19.6875H7.5C4.3982 19.6875 1.875 22.2107 1.875 25.3125V43.125C1.875 46.2268 4.3982 48.75 7.5 48.75H10.632C10.7492 49.5511 10.4993 50.3339 9.92615 50.8896C9.64508 51.1624 9.56268 51.5808 9.72015 51.9397C9.87681 52.2979 10.2446 52.5221 10.6329 52.4982C13.4337 52.3112 15.6106 51.0852 16.5436 48.75H32.8125C35.9143 48.75 38.4375 46.2268 38.4375 43.125V25.3125C38.4375 22.2107 35.9143 19.6875 32.8125 19.6875ZM13.125 40.3125C9.50683 40.3125 6.5625 37.3682 6.5625 33.75C6.89295 25.056 19.3584 25.0584 19.6875 33.7501C19.6875 37.3682 16.7432 40.3125 13.125 40.3125Z" fill="#196164"/>
<path d="M33.7502 28.125H21.5627C21.0446 28.125 20.6252 27.7057 20.6252 27.1875C20.6252 26.6693 21.0446 26.25 21.5627 26.25H31.4871L30.2749 25.0379C29.4123 24.1683 30.7296 22.8483 31.6006 23.7122C31.6006 23.7122 34.4131 26.5247 34.4131 26.5247C35.0049 27.0778 34.5609 28.1527 33.7502 28.125Z" fill="#C4F500"/>
<path d="M24.3752 34.6875C24.1354 34.6875 23.8955 34.596 23.7124 34.4129L20.8999 31.6004C20.3086 31.047 20.7517 29.9725 21.5628 30C21.5627 30 33.7502 30 33.7502 30C34.9784 30.0193 34.9861 31.8542 33.7502 31.875H23.8259L25.0381 33.0872C25.636 33.6441 25.177 34.7159 24.3752 34.6875Z" fill="#C4F500"/>
</svg> -->



<svg xmlns="http://www.w3.org/2000/svg" width="82" height="82" viewBox="0 0 82 82" fill="none">
<circle cx="41" cy="41" r="41" fill="#2976C0"/>
<g clip-path="url(#clip0_864187_119)">
<g filter="url(#filter0_d_864187_119)">
<path d="M56.5369 49.25C54.2885 49.1178 52.5119 48.1289 51.7651 46.25H38.75C36.2686 46.25 34.25 44.2314 34.25 41.75V27.5C34.25 25.0186 36.2686 23 38.75 23H59C61.4814 23 63.5 25.0186 63.5 27.5V41.75C63.5 44.2314 61.4814 46.25 59 46.25H56.4944C56.4006 46.8909 56.6006 47.5171 57.0591 47.9617C57.5442 48.4011 57.1897 49.2724 56.5369 49.25ZM38.75 24.5C37.0954 24.5 35.75 25.8454 35.75 27.5V41.75C35.75 43.4046 37.0954 44.75 38.75 44.75H52.3247C52.6785 44.75 52.9846 44.9976 53.0578 45.3433C53.2854 46.3833 54.0475 47.0687 55.083 47.4541C54.901 46.7339 54.8187 44.8173 55.9194 44.75H59C60.6546 44.75 62 43.4046 62 41.75V27.5C62 25.8454 60.6546 24.5 59 24.5H38.75Z" fill="#F2F2F2"/>
</g>
<path d="M56.75 29H52.25C50.5931 29 49.25 30.3431 49.25 32V36.5C49.25 38.1569 50.5931 39.5 52.25 39.5H56.75C58.4069 39.5 59.75 38.1569 59.75 36.5V32C59.75 30.3431 58.4069 29 56.75 29Z" fill="#F2F2F2"/>
<g filter="url(#filter1_d_864187_119)">
<path d="M43.25 32.75H23C20.5186 32.75 18.5 34.7686 18.5 37.25V51.5C18.5 53.9814 20.5186 56 23 56H25.5056C25.5994 56.6409 25.3994 57.2671 24.9409 57.7117C24.7161 57.9299 24.6501 58.2646 24.7761 58.5518C24.9014 58.8383 25.1957 59.0177 25.5063 58.9986C27.747 58.849 29.4885 57.8682 30.2349 56H43.25C45.7314 56 47.75 53.9814 47.75 51.5V37.25C47.75 34.7686 45.7314 32.75 43.25 32.75ZM27.5 49.25C24.6055 49.25 22.25 46.8946 22.25 44C22.5144 37.0448 32.4867 37.0467 32.75 44.0001C32.75 46.8946 30.3946 49.25 27.5 49.25Z" fill="#F2F2F2"/>
</g>
<path d="M44 39.4996H34.25C33.8355 39.4996 33.5 39.1642 33.5 38.7496C33.5 38.3351 33.8355 37.9996 34.25 37.9996H42.1895L41.2198 37.0299C40.5297 36.3343 41.5835 35.2783 42.2803 35.9694L44.5303 38.2194C45.0038 38.6619 44.6486 39.5218 44 39.4996Z" fill="#2976C0"/>
<path d="M36.5001 44.7504C36.3082 44.7504 36.1163 44.6772 35.9698 44.5307L33.7198 42.2807C33.2468 41.838 33.6013 40.9784 34.2501 41.0004H44.0001C44.9826 41.0159 44.9888 42.4838 44.0001 42.5004H36.0606L37.0304 43.4702C37.5087 43.9157 37.1415 44.7731 36.5001 44.7504Z" fill="#2976C0"/>
</g>
<defs>
<filter id="filter0_d_864187_119" x="30.25" y="23" width="37.25" height="34.25" filterUnits="userSpaceOnUse" color-interpolation-filters="sRGB">
<feFlood flood-opacity="0" result="BackgroundImageFix"/>
<feColorMatrix in="SourceAlpha" type="matrix" values="0 0 0 0 0 0 0 0 0 0 0 0 0 0 0 0 0 0 127 0" result="hardAlpha"/>
<feOffset dy="4"/>
<feGaussianBlur stdDeviation="2"/>
<feComposite in2="hardAlpha" operator="out"/>
<feColorMatrix type="matrix" values="0 0 0 0 0 0 0 0 0 0 0 0 0 0 0 0 0 0 0.25 0"/>
<feBlend mode="normal" in2="BackgroundImageFix" result="effect1_dropShadow_864187_119"/>
<feBlend mode="normal" in="SourceGraphic" in2="effect1_dropShadow_864187_119" result="shape"/>
</filter>
<filter id="filter1_d_864187_119" x="14.5" y="32.75" width="37.25" height="34.25" filterUnits="userSpaceOnUse" color-interpolation-filters="sRGB">
<feFlood flood-opacity="0" result="BackgroundImageFix"/>
<feColorMatrix in="SourceAlpha" type="matrix" values="0 0 0 0 0 0 0 0 0 0 0 0 0 0 0 0 0 0 127 0" result="hardAlpha"/>
<feOffset dy="4"/>
<feGaussianBlur stdDeviation="2"/>
<feComposite in2="hardAlpha" operator="out"/>
<feColorMatrix type="matrix" values="0 0 0 0 0 0 0 0 0 0 0 0 0 0 0 0 0 0 0.25 0"/>
<feBlend mode="normal" in2="BackgroundImageFix" result="effect1_dropShadow_864187_119"/>
<feBlend mode="normal" in="SourceGraphic" in2="effect1_dropShadow_864187_119" result="shape"/>
</filter>
<clipPath id="clip0_864187_119">
<rect width="48" height="48" fill="white" transform="translate(17 17)"/>
</clipPath>
</defs>
</svg>