<!-- <svg width="60" height="60" viewBox="0 0 60 60" fill="none" xmlns="http://www.w3.org/2000/svg">
<path d="M52.5 5.625H7.5C4.3982 5.625 1.875 8.1482 1.875 11.25V38.4375C1.875 41.5393 4.3982 44.0625 7.5 44.0625H25.3125V46.875H23.4375C21.3693 46.875 19.6875 48.5568 19.6875 50.625C19.6875 52.6932 21.3693 54.375 23.4375 54.375H36.5625C38.6307 54.375 40.3125 52.6932 40.3125 50.625C40.3125 48.5568 38.6307 46.875 36.5625 46.875H34.6875V44.0625H52.5C55.6018 44.0625 58.125 41.5393 58.125 38.4375V11.25C58.125 8.1482 55.6018 5.625 52.5 5.625ZM7.5 7.5H52.5C54.5682 7.5 56.25 9.18183 56.25 11.25V36.5358C55.3953 37.6836 54.04 38.4375 52.5 38.4375H7.5C5.95997 38.4375 4.6047 37.6836 3.75 36.5358V11.25C3.75 9.18183 5.43183 7.5 7.5 7.5ZM36.5625 48.75C39.0304 48.8134 39.0381 52.4344 36.5624 52.5H23.4375C20.9685 52.4361 20.9629 48.8154 23.4376 48.75H25.7098C27.2742 52.4633 32.727 52.4614 34.2902 48.75H36.5625Z" fill="#196164"/>
<path d="M26.25 20.625H22.5C20.9467 20.625 19.6875 21.8842 19.6875 23.4375V33.75C19.6875 35.3033 20.9467 36.5625 22.5 36.5625H26.25C27.8033 36.5625 29.0625 35.3033 29.0625 33.75V23.4375C29.0625 21.8842 27.8033 20.625 26.25 20.625Z" fill="#196164"/>
<path d="M15 26.25H11.25C9.6967 26.25 8.4375 27.5092 8.4375 29.0625V33.75C8.4375 35.3033 9.6967 36.5625 11.25 36.5625H15C16.5533 36.5625 17.8125 35.3033 17.8125 33.75V29.0625C17.8125 27.5092 16.5533 26.25 15 26.25Z" fill="#196164"/>
<path d="M48.75 15.9375H45C43.4467 15.9375 42.1875 17.1967 42.1875 18.75V33.75C42.1875 35.3033 43.4467 36.5625 45 36.5625H48.75C50.3033 36.5625 51.5625 35.3033 51.5625 33.75V18.75C51.5625 17.1967 50.3033 15.9375 48.75 15.9375Z" fill="#196164"/>
<path d="M33.7499 36.5625H37.4999C41.2074 36.4657 41.2087 31.0344 37.4998 30.9375H33.7499C30.0423 31.0343 30.0411 36.4656 33.7499 36.5625Z" fill="#196164"/>
<path d="M48.4754 11.5246L46.6004 9.64964C45.7299 8.78647 44.4114 10.105 45.2748 10.9754C45.2747 10.9753 45.5494 11.25 45.5494 11.25H43.125C40.5405 11.25 38.4375 13.3529 38.4375 15.9375V23.4375C38.338 27.1458 32.9111 27.1466 32.8125 23.4374V20.625C32.8125 18.0404 30.7096 15.9375 28.125 15.9375H18.75C16.1655 15.9375 14.0625 18.0404 14.0625 20.625C14.0625 21.1423 13.6423 21.5625 13.125 21.5625H9.37505C8.15362 21.5785 8.13413 23.417 9.37509 23.4375C9.37505 23.4375 13.125 23.4375 13.125 23.4375C14.676 23.4375 15.9375 22.1759 15.9375 20.625C15.9375 19.0741 17.1991 17.8125 18.75 17.8125H28.125C29.676 17.8125 30.9375 19.0741 30.9375 20.625V23.4375C31.1553 29.6382 40.0932 29.6421 40.3125 23.4374V15.9375C40.3125 14.3866 41.5741 13.125 43.125 13.125H45.5494L45.2747 13.3996C44.4117 14.27 45.7298 15.5887 46.6004 14.7253C46.6004 14.7253 48.4754 12.8503 48.4754 12.8503C48.8416 12.4841 48.8416 11.8908 48.4754 11.5246Z" fill="#C4F500"/>
</svg> -->



<svg xmlns="http://www.w3.org/2000/svg" width="82" height="82" viewBox="0 0 82 82" fill="none">
<circle cx="41" cy="41" r="41" fill="#2976C0"/>
<g clip-path="url(#clip0_864187_98)">
<g filter="url(#filter0_d_864187_98)">
<path d="M59 24.5H23C20.5186 24.5 18.5 26.5186 18.5 29V50.75C18.5 53.2314 20.5186 55.25 23 55.25H37.25V57.5H35.75C34.0954 57.5 32.75 58.8454 32.75 60.5C32.75 62.1546 34.0954 63.5 35.75 63.5H46.25C47.9046 63.5 49.25 62.1546 49.25 60.5C49.25 58.8454 47.9046 57.5 46.25 57.5H44.75V55.25H59C61.4814 55.25 63.5 53.2314 63.5 50.75V29C63.5 26.5186 61.4814 24.5 59 24.5ZM23 26H59C60.6546 26 62 27.3455 62 29V49.2286C61.3162 50.1469 60.232 50.75 59 50.75H23C21.768 50.75 20.6838 50.1469 20 49.2286V29C20 27.3455 21.3455 26 23 26ZM46.25 59C48.2243 59.0507 48.2305 61.9475 46.2499 62H35.75C33.7748 61.9489 33.7703 59.0523 35.7501 59H37.5678C38.8194 61.9706 43.1816 61.9691 44.4322 59H46.25Z" fill="#F2F2F2"/>
</g>
<path d="M38 36.5H35C33.7574 36.5 32.75 37.5074 32.75 38.75V47C32.75 48.2426 33.7574 49.25 35 49.25H38C39.2426 49.25 40.25 48.2426 40.25 47V38.75C40.25 37.5074 39.2426 36.5 38 36.5Z" fill="#F2F2F2"/>
<path d="M29 41H26C24.7574 41 23.75 42.0074 23.75 43.25V47C23.75 48.2426 24.7574 49.25 26 49.25H29C30.2426 49.25 31.25 48.2426 31.25 47V43.25C31.25 42.0074 30.2426 41 29 41Z" fill="#F2F2F2"/>
<path d="M56 32.75H53C51.7574 32.75 50.75 33.7574 50.75 35V47C50.75 48.2426 51.7574 49.25 53 49.25H56C57.2426 49.25 58.25 48.2426 58.25 47V35C58.25 33.7574 57.2426 32.75 56 32.75Z" fill="#F2F2F2"/>
<path d="M43.9998 49.25H46.9998C49.9658 49.1726 49.9669 44.8275 46.9997 44.75H43.9998C41.0337 44.8274 41.0328 49.1725 43.9998 49.25Z" fill="#F2F2F2"/>
<path d="M55.7802 29.2202L54.2802 27.7202C53.5838 27.0297 52.529 28.0845 53.2197 28.7808L53.4394 29.0005H51.4999C49.4323 29.0005 47.7499 30.6828 47.7499 32.7505V38.7505C47.6703 41.7171 43.3288 41.7178 43.2499 38.7504V36.5005C43.2499 34.4328 41.5676 32.7505 39.4999 32.7505H31.9999C29.9323 32.7505 28.2499 34.4328 28.2499 36.5005C28.2499 36.9143 27.9137 37.2505 27.4999 37.2505H24.4999C23.5228 37.2633 23.5072 38.7341 24.5 38.7505H27.4999C28.7407 38.7505 29.7499 37.7412 29.7499 36.5005C29.7499 35.2598 30.7592 34.2505 31.9999 34.2505H39.4999C40.7407 34.2505 41.7499 35.2598 41.7499 36.5005V38.7505C41.9241 43.711 49.0745 43.7142 49.2499 38.7504V32.7505C49.2499 31.5098 50.2592 30.5005 51.4999 30.5005H53.4394L53.2197 30.7202C52.5293 31.4165 53.5837 32.4714 54.2802 31.7807L55.7802 30.2807C56.0732 29.9878 56.0732 29.5131 55.7802 29.2202Z" fill="#F2F2F2"/>
</g>
<defs>
<filter id="filter0_d_864187_98" x="14.5" y="24.5" width="53" height="47" filterUnits="userSpaceOnUse" color-interpolation-filters="sRGB">
<feFlood flood-opacity="0" result="BackgroundImageFix"/>
<feColorMatrix in="SourceAlpha" type="matrix" values="0 0 0 0 0 0 0 0 0 0 0 0 0 0 0 0 0 0 127 0" result="hardAlpha"/>
<feOffset dy="4"/>
<feGaussianBlur stdDeviation="2"/>
<feComposite in2="hardAlpha" operator="out"/>
<feColorMatrix type="matrix" values="0 0 0 0 0 0 0 0 0 0 0 0 0 0 0 0 0 0 0.25 0"/>
<feBlend mode="normal" in2="BackgroundImageFix" result="effect1_dropShadow_864187_98"/>
<feBlend mode="normal" in="SourceGraphic" in2="effect1_dropShadow_864187_98" result="shape"/>
</filter>
<clipPath id="clip0_864187_98">
<rect width="48" height="48" fill="white" transform="translate(17 20)"/>
</clipPath>
</defs>
</svg>