<!-- <svg width="60" height="45" viewBox="0 0 60 45" fill="none" xmlns="http://www.w3.org/2000/svg">
<path d="M34.9446 24.5698H50.4401C50.1525 27.7057 48.6228 30.6265 46.153 32.7561C43.6831 34.8857 40.4525 36.0694 37.0983 36.0737C36.7992 36.0737 36.5124 36.1852 36.3009 36.3836C36.0895 36.5821 35.9707 36.8512 35.9707 37.1318V43.9419C35.9707 44.2226 36.0895 44.4917 36.3009 44.6901C36.5124 44.8886 36.7992 45.0001 37.0983 45.0001C49.7275 45.0001 60 35.3605 60 23.5116V1.05819C60 0.777555 59.8812 0.508416 59.6697 0.309979C59.4583 0.111542 59.1715 6.10352e-05 58.8724 6.10352e-05H34.9446C34.6455 6.10352e-05 34.3587 0.111542 34.1472 0.309979C33.9358 0.508416 33.817 0.777555 33.817 1.05819V23.5116C33.817 23.7923 33.9358 24.0614 34.1472 24.2598C34.3587 24.4583 34.6455 24.5698 34.9446 24.5698ZM36.0722 2.11631H57.7448V23.5116C57.7448 33.8389 49.0893 42.304 38.2259 42.8542V38.1519C46.3289 37.608 52.7427 31.2486 52.7427 23.5116C52.7427 23.231 52.6239 22.9619 52.4124 22.7634C52.201 22.565 51.9142 22.4535 51.6151 22.4535H36.0722V2.11631ZM1.12761 24.5698H16.6254C16.3383 27.7058 14.8088 30.627 12.3388 32.7567C9.86887 34.8864 6.63791 36.0699 3.28359 36.0737C2.98453 36.0737 2.69772 36.1852 2.48625 36.3836C2.27479 36.5821 2.15599 36.8512 2.15599 37.1318V43.9419C2.15599 44.2226 2.27479 44.4917 2.48625 44.6901C2.69772 44.8886 2.98453 45.0001 3.28359 45.0001C15.9128 45.0001 26.1853 35.3605 26.1853 23.5116V1.05819C26.1853 0.777555 26.0665 0.508416 25.855 0.309979C25.6436 0.111542 25.3568 6.10352e-05 25.0577 6.10352e-05H1.12761C0.828547 6.10352e-05 0.541736 0.111542 0.330269 0.309979C0.118801 0.508416 0 0.777555 0 1.05819V23.5116C0 23.7923 0.118801 24.0614 0.330269 24.2598C0.541736 24.4583 0.828547 24.5698 1.12761 24.5698ZM2.25522 2.11631H23.9301V23.5116C23.9301 33.8389 15.2723 42.304 4.4112 42.8542V38.1519C12.5142 37.608 18.9258 31.2486 18.9258 23.5116C18.9258 23.231 18.807 22.9619 18.5955 22.7634C18.384 22.565 18.0972 22.4535 17.7982 22.4535H2.25522V2.11631Z" fill="#C4F500"/>
</svg> -->

<svg xmlns="http://www.w3.org/2000/svg" width="60" height="45" viewBox="0 0 60 45" fill="none">
<g clip-path="url(#clip0_2636_7280)">
<path d="M34.9446 24.5697H50.4401C50.1525 27.7056 48.6228 30.6264 46.153 32.756C43.6831 34.8856 40.4525 36.0693 37.0983 36.0736C36.7992 36.0736 36.5124 36.1851 36.3009 36.3835C36.0895 36.582 35.9707 36.8511 35.9707 37.1317V43.9418C35.9707 44.2225 36.0895 44.4916 36.3009 44.69C36.5124 44.8885 36.7992 45 37.0983 45C49.7275 45 60 35.3604 60 23.5115V1.05813C60 0.777494 59.8812 0.508355 59.6697 0.309918C59.4583 0.111481 59.1715 0 58.8724 0H34.9446C34.6455 0 34.3587 0.111481 34.1472 0.309918C33.9358 0.508355 33.817 0.777494 33.817 1.05813V23.5115C33.817 23.7922 33.9358 24.0613 34.1472 24.2597C34.3587 24.4582 34.6455 24.5697 34.9446 24.5697ZM36.0722 2.11625H57.7448V23.5115C57.7448 33.8388 49.0893 42.3039 38.2259 42.8541V38.1518C46.3289 37.6079 52.7427 31.2485 52.7427 23.5115C52.7427 23.2309 52.6239 22.9618 52.4124 22.7633C52.201 22.5649 51.9142 22.4534 51.6151 22.4534H36.0722V2.11625ZM1.12761 24.5697H16.6254C16.3383 27.7057 14.8088 30.6269 12.3388 32.7566C9.86887 34.8863 6.63791 36.0698 3.28359 36.0736C2.98453 36.0736 2.69772 36.1851 2.48625 36.3835C2.27479 36.582 2.15599 36.8511 2.15599 37.1317V43.9418C2.15599 44.2225 2.27479 44.4916 2.48625 44.69C2.69772 44.8885 2.98453 45 3.28359 45C15.9128 45 26.1853 35.3604 26.1853 23.5115V1.05813C26.1853 0.777494 26.0665 0.508355 25.855 0.309918C25.6436 0.111481 25.3568 0 25.0577 0H1.12761C0.828547 0 0.541736 0.111481 0.330269 0.309918C0.118801 0.508355 0 0.777494 0 1.05813V23.5115C0 23.7922 0.118801 24.0613 0.330269 24.2597C0.541736 24.4582 0.828547 24.5697 1.12761 24.5697ZM2.25522 2.11625H23.9301V23.5115C23.9301 33.8388 15.2723 42.3039 4.4112 42.8541V38.1518C12.5142 37.6079 18.9258 31.2485 18.9258 23.5115C18.9258 23.2309 18.807 22.9618 18.5955 22.7633C18.384 22.5649 18.0972 22.4534 17.7982 22.4534H2.25522V2.11625Z" fill="#2976C0"/>
</g>
<defs>
<clipPath id="clip0_2636_7280">
<rect width="60" height="45" fill="white"/>
</clipPath>
</defs>
</svg>