<!-- <svg width="40" height="40" viewBox="0 0 40 40" fill="none" xmlns="http://www.w3.org/2000/svg">
<path d="M25.7082 20.9799C24.7929 10.6362 9.56018 10.7933 9.08318 21.2791C9.21265 22.7576 9.04377 24.2178 8.318 25.6009C7.60751 27.2326 10.9661 27.6343 12.022 27.6181C12.04 27.7451 12.0482 27.999 11.968 28.4592C11.7187 30.4808 14.047 30.5303 15.4769 30.1981C15.7427 30.6156 15.8596 31.1032 15.7931 31.5579C15.6998 32.1088 16.1664 32.6476 16.726 32.634L22.3058 32.634C22.6491 32.634 22.965 32.4497 23.1307 32.1524C23.2952 31.8564 23.2863 31.4926 23.1072 31.2039C22.3852 30.0376 22.3183 28.6801 22.9183 27.4625C24.8162 25.8188 25.8318 23.4635 25.7082 20.9799Z" fill="#196164"/>
<path d="M20.3579 33.799C20.1257 33.5577 19.7055 33.5575 19.4733 33.799L17.5987 35.6736C17.0236 36.2532 17.9019 37.1333 18.4825 36.5573L19.2906 35.7492V37.9905C19.2906 38.3359 19.5705 38.6155 19.9156 38.6155C20.2608 38.6155 20.5406 38.3359 20.5406 37.9905V35.7492L21.3487 36.5574C21.929 37.1328 22.8081 36.2538 22.2325 35.6735L20.3579 33.799Z" fill="#196164"/>
<path d="M10.1105 29.4308C10.1189 29.3342 7.31481 29.4012 7.22009 29.3826C6.39903 29.3962 6.39829 30.619 7.22012 30.6326C7.2201 30.6326 8.36309 30.6326 8.36309 30.6326L6.7782 32.2177C6.53406 32.4618 6.53406 32.8574 6.7782 33.1015C7.02233 33.3456 7.41785 33.3456 7.66198 33.1015L9.24676 31.5165V32.6596C9.26043 33.4805 10.4829 33.4816 10.4968 32.6596V30.0076C10.4984 29.7606 10.3403 29.523 10.1105 29.4308Z" fill="#196164"/>
<path d="M6.34025 19.6725C6.41088 19.6097 4.38647 17.6747 4.33036 17.5944C3.75044 17.0191 2.87076 17.8977 3.44657 18.4782C3.44653 18.4782 4.25464 19.2863 4.25464 19.2863H2.01343C1.66827 19.2863 1.38843 19.5658 1.38843 19.9113C1.38843 20.2567 1.66827 20.5363 2.01343 20.5363H4.25464L3.44653 21.3444C2.87144 21.9243 3.74973 22.8039 4.33035 22.2281C4.33032 22.2282 6.20478 20.3537 6.20478 20.3537C6.38098 20.1805 6.43734 19.9003 6.34025 19.6725Z" fill="#196164"/>
<path d="M9.99712 6.59094C9.65197 6.59094 9.37212 6.87049 9.37212 7.21594V8.35864L7.78735 6.77405C7.54321 6.52991 7.1477 6.52991 6.90356 6.77405C6.65942 7.01819 6.65942 7.4137 6.90356 7.65784L8.48822 9.24231H7.34546C6.52508 9.25555 6.52311 10.4787 7.34548 10.4923C7.34546 10.4923 9.99712 10.4923 9.99712 10.4923C10.2441 10.4939 10.4816 10.3359 10.5739 10.1061C10.6692 10.1081 10.6044 7.31501 10.6221 7.21597C10.6221 6.87049 10.3423 6.59094 9.99712 6.59094Z" fill="#196164"/>
<path d="M21.5264 3.44214L20.7183 4.25025V2.00903C20.7183 1.66358 20.4384 1.38403 20.0933 1.38403C19.7481 1.38403 19.4683 1.66358 19.4683 2.00903V4.25025L18.6602 3.44214C18.0811 2.86721 17.2001 3.74513 17.7764 4.32595L19.651 6.20051C19.8835 6.44228 20.3031 6.4425 20.5356 6.2005L22.4102 4.32593C22.9847 3.74639 22.1075 2.86608 21.5264 3.44214Z" fill="#196164"/>
<path d="M33.2308 6.89917C32.9866 6.65503 32.5911 6.65503 32.347 6.89917L30.7622 8.48414V7.34106C30.7491 6.52076 29.5258 6.51866 29.5122 7.34109C29.5122 7.34106 29.5122 9.99304 29.5122 9.99304C29.5106 10.24 29.6687 10.4776 29.8985 10.5699C29.8943 10.6649 32.6914 10.6004 32.7889 10.6181C33.6094 10.6043 33.6112 9.38199 32.7889 9.36804H31.6459L33.2308 7.78296C33.4749 7.53882 33.4749 7.14331 33.2308 6.89917Z" fill="#196164"/>
<path d="M37.9955 19.4639H35.7543L36.5624 18.6558C37.1374 18.0769 36.2593 17.1956 35.6786 17.772C35.6786 17.772 33.8041 19.6465 33.8041 19.6465C33.6279 19.8198 33.5716 20.0998 33.6687 20.3277C33.6001 20.3938 35.621 22.3232 35.6785 22.4058C36.2583 22.9805 37.1383 22.103 36.5623 21.522C36.5624 21.522 35.7543 20.7139 35.7543 20.7139H37.9955C38.8169 20.7003 38.817 19.4775 37.9955 19.4639Z" fill="#196164"/>
<path d="M33.289 30.1329C33.289 29.7874 33.0092 29.5079 32.664 29.5079C32.5573 29.5263 29.7792 29.4593 29.7737 29.556C29.5439 29.6483 29.3857 29.8858 29.3873 30.1329V32.7848C29.401 33.6054 30.6234 33.6072 30.6373 32.7848V31.6418L32.2221 33.2267C32.4663 33.4709 32.8618 33.4709 33.1059 33.2267C33.35 32.9826 33.35 32.5871 33.1059 32.343L31.521 30.7579H32.664C33.0092 30.7579 33.289 30.4783 33.289 30.1329Z" fill="#196164"/>
<path d="M31.3332 16.605C30.4183 6.26117 15.1845 6.41958 14.7081 16.9042C14.8376 18.3827 14.6687 19.8429 13.943 21.226C13.2329 22.8568 16.5891 23.2612 17.6469 23.2432C17.665 23.3702 17.6732 23.6241 17.5929 24.0843C17.3439 26.1058 19.6713 26.1553 21.1018 25.8232C21.3677 26.2406 21.4845 26.7283 21.418 27.183C21.3247 27.7339 21.7913 28.2727 22.3509 28.2591L27.9308 28.2591C28.2741 28.2591 28.5899 28.0748 28.7557 27.7775C28.9201 27.4815 28.9113 27.1177 28.7322 26.829C28.0101 25.6626 27.9433 24.3052 28.5433 23.0876C30.4411 21.4439 31.4568 19.0885 31.3332 16.605Z" fill="#C4F500"/>
</svg> -->


<svg xmlns="http://www.w3.org/2000/svg" width="82" height="82" viewBox="0 0 82 82" fill="none">
<circle cx="41" cy="41" r="41" fill="#fffff"/>
<path d="M47.8498 42.1763C46.7515 29.7639 28.4722 29.9524 27.8998 42.5354C28.0552 44.3096 27.8525 46.0618 26.9816 47.7215C26.129 49.6796 30.1593 50.1616 31.4264 50.1422C31.448 50.2946 31.4578 50.5992 31.3616 51.1515C31.0624 53.5774 33.8564 53.6368 35.5723 53.2382C35.8912 53.7392 36.0315 54.3243 35.9517 54.8699C35.8398 55.531 36.3997 56.1776 37.0712 56.1612H43.767C44.1789 56.1612 44.558 55.9401 44.7568 55.5833C44.9542 55.2281 44.9436 54.7916 44.7286 54.4451C43.8622 53.0456 43.782 51.4166 44.502 49.9554C46.7794 47.983 47.9982 45.1566 47.8498 42.1763Z" fill="white"/>
<path d="M41.4296 57.5591C41.1509 57.2695 40.6467 57.2693 40.368 57.5591L38.1185 59.8086C37.4284 60.5041 38.4824 61.5602 39.1791 60.869L40.1488 59.8993V62.5889C40.1488 63.0033 40.4847 63.3389 40.8988 63.3389C41.313 63.3389 41.6488 63.0033 41.6488 62.5889V59.8993L42.6185 60.8691C43.3149 61.5596 44.3698 60.5048 43.6791 59.8085L41.4296 57.5591Z" fill="white"/>
<path d="M29.1325 52.3174C29.1426 52.2015 25.7777 52.2819 25.6641 52.2596C24.6788 52.2759 24.6779 53.7432 25.6641 53.7596H27.0357L25.1338 55.6617C24.8408 55.9546 24.8408 56.4293 25.1338 56.7222C25.4267 57.0152 25.9014 57.0152 26.1943 56.7222L28.0961 54.8202V56.192C28.1125 57.177 29.5794 57.1784 29.5961 56.192V53.0096C29.598 52.7132 29.4083 52.428 29.1325 52.3174Z" fill="white"/>
<path d="M24.6082 40.6074C24.693 40.5321 22.2637 38.2101 22.1963 38.1137C21.5004 37.4234 20.4448 38.4777 21.1358 39.1743L22.1055 40.144H19.416C19.0018 40.144 18.666 40.4794 18.666 40.894C18.666 41.3085 19.0018 41.644 19.416 41.644H22.1055L21.1357 42.6137C20.4456 43.3096 21.4996 44.3651 22.1963 43.6742L24.4456 41.4249C24.6571 41.217 24.7247 40.8808 24.6082 40.6074Z" fill="white"/>
<path d="M28.9965 24.9092C28.5823 24.9092 28.2465 25.2446 28.2465 25.6592V27.0304L26.3447 25.1289C26.0518 24.8359 25.5771 24.8359 25.2842 25.1289C24.9912 25.4219 24.9912 25.8965 25.2842 26.1895L27.1858 28.0908H25.8145C24.83 28.1067 24.8276 29.5745 25.8145 29.5908H28.9965C29.2928 29.5927 29.5778 29.4031 29.6886 29.1274C29.8029 29.1298 29.7252 25.7781 29.7464 25.6592C29.7464 25.2446 29.4107 24.9092 28.9965 24.9092Z" fill="white"/>
<path d="M42.8318 21.1309L41.8621 22.1006V19.4111C41.8621 18.9966 41.5262 18.6611 41.1121 18.6611C40.6978 18.6611 40.3621 18.9966 40.3621 19.4111V22.1006L39.3923 21.1309C38.6974 20.4409 37.6402 21.4945 38.3318 22.1914L40.5813 24.4409C40.8603 24.731 41.3638 24.7313 41.6428 24.4409L43.8923 22.1914C44.5817 21.496 43.5291 20.4396 42.8318 21.1309Z" fill="white"/>
<path d="M56.8769 25.2793C56.5838 24.9863 56.1092 24.9863 55.8163 25.2793L53.9146 27.1813V25.8096C53.8988 24.8252 52.4309 24.8227 52.4146 25.8096V28.9919C52.4126 29.2883 52.6024 29.5734 52.8781 29.6842C52.8731 29.7982 56.2296 29.7208 56.3466 29.742C57.3312 29.7255 57.3334 28.2587 56.3466 28.2419H54.975L56.8769 26.3398C57.1698 26.0469 57.1698 25.5723 56.8769 25.2793Z" fill="white"/>
<path d="M62.5945 40.3562H59.9051L60.8748 39.3865C61.5648 38.6918 60.5111 37.6343 59.8142 38.3259L57.5648 40.5753C57.3534 40.7833 57.2858 41.1193 57.4024 41.3928C57.32 41.4721 59.7451 43.7874 59.8141 43.8865C60.5099 44.5761 61.5659 43.5231 60.8747 42.8259L59.9051 41.8562H62.5945C63.5802 41.8399 63.5803 40.3725 62.5945 40.3562Z" fill="white"/>
<path d="M56.9467 53.1592C56.9467 52.7446 56.6109 52.4092 56.1967 52.4092C56.0687 52.4313 52.7349 52.3509 52.7283 52.4669C52.4526 52.5777 52.2627 52.8627 52.2647 53.1592V56.3415C52.2811 57.3262 53.748 57.3283 53.7647 56.3415V54.9699L55.6664 56.8717C55.9595 57.1648 56.4341 57.1648 56.727 56.8717C57.0199 56.5788 57.0199 56.1042 56.727 55.8113L54.8251 53.9092H56.1967C56.6109 53.9092 56.9467 53.5737 56.9467 53.1592Z" fill="white"/>
<g filter="url(#filter0_d_864188_167)">
<path d="M54.5998 36.9259C53.5019 24.5133 35.2214 24.7034 34.6497 37.2849C34.8051 39.0591 34.6024 40.8113 33.7316 42.4711C32.8794 44.428 36.9069 44.9133 38.1762 44.8917C38.198 45.0441 38.2078 45.3488 38.1114 45.901C37.8126 48.3268 40.6055 48.3862 42.3221 47.9877C42.6412 48.4886 42.7814 49.0738 42.7016 49.6195C42.5896 50.2805 43.1495 50.9271 43.821 50.9108H50.5169C50.9289 50.9108 51.3078 50.6896 51.5068 50.3329C51.7041 49.9777 51.6935 49.5411 51.4786 49.1947C50.6121 47.795 50.5319 46.1661 51.2519 44.705C53.5293 42.7325 54.7481 39.9061 54.5998 36.9259Z" fill="#2976C0"/>
<path d="M38.6712 44.8212L38.609 44.3843L38.1677 44.3918C37.5745 44.4019 36.3109 44.2901 35.3206 43.9504C34.8186 43.7782 34.4565 43.5704 34.2659 43.3505C34.1773 43.2482 34.1341 43.1531 34.1199 43.0613C34.1062 42.9724 34.114 42.8513 34.1835 42.6857C35.0968 40.9356 35.306 39.0995 35.1507 37.275C35.4372 31.3133 39.883 28.2979 44.4346 28.2325C48.9957 28.167 53.5748 31.0652 54.1009 36.9603C54.2384 39.7812 53.0849 42.4559 50.9246 44.327L50.8481 44.3932L50.8034 44.484C50.0066 46.101 50.097 47.9128 51.0535 49.4579L51.0537 49.4582C51.1732 49.6508 51.1787 49.8934 51.0699 50.0897C50.9602 50.2861 50.7495 50.4108 50.5169 50.4108H43.821V50.4106L43.8089 50.4109C43.4513 50.4196 43.1351 50.0536 43.1945 49.703L43.1947 49.703L43.1963 49.6918C43.2954 49.0143 43.1198 48.3093 42.7438 47.7191L42.5537 47.4206L42.209 47.5007C41.3919 47.6904 40.3636 47.7571 39.6075 47.5254C39.2372 47.412 38.9705 47.2391 38.8068 47.0132C38.6501 46.7968 38.5467 46.4751 38.6063 45.9739C38.706 45.3965 38.7024 45.0399 38.6712 44.8212Z" stroke="white"/>
</g>
<defs>
<filter id="filter0_d_864188_167" x="29.6143" y="27.7314" width="28.9976" height="31.1797" filterUnits="userSpaceOnUse" color-interpolation-filters="sRGB">
<feFlood flood-opacity="0" result="BackgroundImageFix"/>
<feColorMatrix in="SourceAlpha" type="matrix" values="0 0 0 0 0 0 0 0 0 0 0 0 0 0 0 0 0 0 127 0" result="hardAlpha"/>
<feOffset dy="4"/>
<feGaussianBlur stdDeviation="2"/>
<feComposite in2="hardAlpha" operator="out"/>
<feColorMatrix type="matrix" values="0 0 0 0 0 0 0 0 0 0 0 0 0 0 0 0 0 0 0.25 0"/>
<feBlend mode="normal" in2="BackgroundImageFix" result="effect1_dropShadow_864188_167"/>
<feBlend mode="normal" in="SourceGraphic" in2="effect1_dropShadow_864188_167" result="shape"/>
</filter>
</defs>
</svg>