<!-- <svg width="40" height="40" viewBox="0 0 40 40" fill="none" xmlns="http://www.w3.org/2000/svg">
<path d="M26.2451 23.749H13.7451C12.3666 23.749 11.2451 24.8702 11.2451 26.249V28.749C11.2451 30.1278 12.3666 31.249 13.7451 31.249H26.2451C27.6236 31.249 28.7451 30.1278 28.7451 28.749V26.249C28.7451 24.8702 27.6236 23.749 26.2451 23.749ZM23.7451 28.749H19.9951C19.1747 28.7356 19.1728 27.5128 19.9951 27.499H23.7451C24.5655 27.5124 24.5675 28.7353 23.7451 28.749ZM25.6232 28.749C24.8023 28.7368 24.795 27.5142 25.6171 27.499C26.4455 27.5103 26.4464 28.7342 25.6232 28.749Z" fill="#196164"/>
<path d="M26.2451 11.249H13.7451C12.3666 11.249 11.2451 12.3702 11.2451 13.749V16.249C11.2451 17.6278 12.3666 18.749 13.7451 18.749H26.2451C27.6236 18.749 28.7451 17.6278 28.7451 16.249V13.749C28.7451 12.3702 27.6236 11.249 26.2451 11.249ZM23.7451 16.249H19.9951C19.1747 16.2356 19.1728 15.0128 19.9951 14.999H23.7451C24.5655 15.0124 24.5675 16.2353 23.7451 16.249ZM25.6232 16.249C24.8023 16.2368 24.795 15.0142 25.6171 14.999C26.4455 15.0103 26.4464 16.2342 25.6232 16.249Z" fill="#196164"/>
<path d="M26.245 17.4991H13.745C12.3643 17.4991 11.245 18.6184 11.245 19.9991V22.4991C11.245 23.8799 12.3643 24.9991 13.745 24.9991H26.245C27.6257 24.9991 28.745 23.8799 28.745 22.4991V19.9991C28.745 18.6184 27.6257 17.4991 26.245 17.4991Z" fill="#C4F500"/>
<path d="M23.7452 23.1241H19.9952C19.1748 23.1107 19.1728 21.8879 19.9952 21.8741H23.7452C24.5656 21.8875 24.5675 23.1104 23.7452 23.1241Z" fill="#196164"/>
<path d="M25.6232 23.1241C24.8024 23.112 24.795 21.8894 25.6171 21.8741C26.4455 21.8854 26.4464 23.1093 25.6232 23.1241Z" fill="#196164"/>
<path d="M21.8702 9.99915H18.1202C17.2998 9.98575 17.2978 8.7629 18.1202 8.74915H21.8702C22.6906 8.76255 22.6925 9.98539 21.8702 9.99915Z" fill="#196164"/>
<path d="M18.1202 36.8741H12.4952C11.6753 36.8609 11.6723 35.638 12.4952 35.6241C12.4952 35.6241 18.1202 35.6241 18.1202 35.6241C18.94 35.6374 18.943 36.8603 18.1202 36.8741Z" fill="#196164"/>
<path d="M36.1771 10.7468C36.0428 10.264 35.7288 9.86301 35.293 9.61704L20.9177 1.49142C20.3489 1.17038 19.6424 1.16977 19.0729 1.49204L4.69824 9.61643C2.58237 10.8932 4.34323 14.0387 6.54303 12.8812C6.54303 12.8812 7.49518 12.343 7.49518 12.343V31.8741C7.49518 32.9081 8.33624 33.7491 9.37018 33.7491H17.2178C17.4782 33.4613 17.7782 33.2081 18.1202 33.0106V32.4991H9.37018C9.02563 32.4991 8.74518 32.219 8.74518 31.8741V11.6365L19.9955 5.27744L31.2452 11.6363V31.8741C31.2452 32.219 30.9647 32.4991 30.6202 32.4991H21.8702V33.0124C22.2082 33.2087 22.5066 33.4612 22.7665 33.7491H30.6202C31.6541 33.7491 32.4952 32.9081 32.4952 31.8741V12.3428L33.4476 12.8812C34.8501 13.7176 36.6523 12.3094 36.1771 10.7468Z" fill="#196164"/>
<path d="M27.4952 35.6241H22.4065C22.1792 34.7498 21.4944 34.0652 20.6202 33.8379V30.6241C20.6202 30.2787 20.3404 29.9991 19.9952 29.9991C19.65 29.9991 19.3702 30.2787 19.3702 30.6241V33.8379C16.5708 34.5867 17.0725 38.7101 19.9953 38.7491C21.1567 38.7491 22.127 37.9495 22.4065 36.8741H27.4952C28.3164 36.8606 28.3169 35.6378 27.4952 35.6241Z" fill="#196164"/>
</svg> -->


<svg xmlns="http://www.w3.org/2000/svg" width="82" height="82" viewBox="0 0 82 82" fill="none">
<circle cx="41" cy="41" r="41" fill="#fffff"/>
<path d="M48.4941 45.499H33.4941C31.8399 45.499 30.4941 46.8445 30.4941 48.499V51.499C30.4941 53.1536 31.8399 54.499 33.4941 54.499H48.4941C50.1483 54.499 51.4941 53.1536 51.4941 51.499V48.499C51.4941 46.8445 50.1483 45.499 48.4941 45.499ZM45.4941 51.499H40.9941C40.0097 51.4829 40.0074 50.0156 40.9941 49.999H45.4941C46.4786 50.0151 46.481 51.4826 45.4941 51.499ZM47.7479 51.499C46.7628 51.4844 46.754 50.0173 47.7405 49.999C48.7346 50.0126 48.7357 51.4813 47.7479 51.499Z" fill="#2976C0"/>
<path d="M48.4941 30.499H33.4941C31.8399 30.499 30.4941 31.8445 30.4941 33.499V36.499C30.4941 38.1536 31.8399 39.499 33.4941 39.499H48.4941C50.1483 39.499 51.4941 38.1536 51.4941 36.499V33.499C51.4941 31.8445 50.1483 30.499 48.4941 30.499ZM45.4941 36.499H40.9941C40.0097 36.4829 40.0074 35.0156 40.9941 34.999H45.4941C46.4786 35.0151 46.481 36.4826 45.4941 36.499ZM47.7479 36.499C46.7628 36.4844 46.754 35.0173 47.7405 34.999C48.7346 35.0126 48.7357 36.4813 47.7479 36.499Z" fill="#2976C0"/>
<path d="M45.4941 44.749H40.9941C40.0097 44.7329 40.0073 43.2656 40.9941 43.249H45.4941C46.4786 43.2651 46.4809 44.7326 45.4941 44.749Z" fill="#F2F2F2"/>
<path d="M47.7479 44.749C46.7629 44.7345 46.754 43.2674 47.7405 43.249C48.7346 43.2626 48.7357 44.7313 47.7479 44.749Z" fill="#F2F2F2"/>
<path d="M43.2441 28.999H38.7441C37.7597 28.9829 37.7573 27.5155 38.7441 27.499H43.2441C44.2286 27.5151 44.2309 28.9825 43.2441 28.999Z" fill="#F2F2F2"/>
<path d="M38.7441 61.249H31.9941C31.0103 61.2332 31.0067 59.7657 31.9941 59.749H38.7441C39.7279 59.765 39.7315 61.2325 38.7441 61.249Z" fill="#F2F2F2"/>
<path d="M60.4124 29.8965C60.2512 29.3172 59.8744 28.836 59.3515 28.5408L42.1011 18.7901C41.4185 18.4048 40.5707 18.4041 39.8873 18.7908L22.6377 28.5401C20.0987 30.0722 22.2117 33.8468 24.8515 32.4578L25.9941 31.812V55.2493C25.9941 56.4901 27.0033 57.4993 28.2441 57.4993H37.6612C37.9737 57.1539 38.3337 56.8501 38.7441 56.6131V55.9993H28.2441C27.8306 55.9993 27.4941 55.6632 27.4941 55.2493V30.9642L40.9945 23.3333L54.4941 30.9639V55.2493C54.4941 55.6632 54.1575 55.9993 53.7441 55.9993H43.2441V56.6153C43.6497 56.8508 44.0078 57.1538 44.3197 57.4993H53.7441C54.9848 57.4993 55.9941 56.4901 55.9941 55.2493V31.8117L57.137 32.4578C58.82 33.4615 60.9826 31.7717 60.4124 29.8965Z" fill="#F2F2F2"/>
<path d="M49.9943 59.749H43.8879C43.6151 58.6999 42.7933 57.8783 41.7443 57.6056V53.749C41.7443 53.3345 41.4085 52.999 40.9943 52.999C40.5801 52.999 40.2443 53.3345 40.2443 53.749V57.6056C36.885 58.5041 37.4871 63.4522 40.9944 63.499C42.3881 63.499 43.5525 62.5395 43.8879 61.249H49.9943C50.9797 61.2328 50.9803 59.7655 49.9943 59.749Z" fill="#F2F2F2"/>
</svg>