<!-- <svg width="40" height="40" viewBox="0 0 40 40" fill="none" xmlns="http://www.w3.org/2000/svg">
<path d="M31.875 7.30298H26.5313C26.9 7.64672 27.1688 8.07797 27.3313 8.55298H31.875C33.2563 8.55298 34.375 9.67172 34.375 11.053V28.553C34.375 29.9342 33.2563 31.053 31.875 31.053H8.125C6.74377 31.053 5.625 29.9342 5.625 28.553V11.053C5.625 9.67172 6.74377 8.55298 8.125 8.55298H12.675C12.8313 8.07797 13.1063 7.64672 13.475 7.30298H8.125C6.05625 7.30298 4.375 8.98423 4.375 11.053V28.553C4.375 30.6217 6.05625 32.303 8.125 32.303H31.875C33.9438 32.303 35.625 30.6217 35.625 28.553V11.053C35.625 8.98423 33.9438 7.30298 31.875 7.30298Z" fill="#196164"/>
<path d="M33.125 11.678V27.928C33.125 28.9592 32.2813 29.803 31.25 29.803H8.75C7.71877 29.803 6.875 28.9592 6.875 27.928V11.678C6.875 10.6405 7.71877 9.80298 8.75 9.80298H12.5V13.3217C12.5 14.2467 12.9 15.1217 13.6 15.7155L17.975 19.453C18.5375 19.9342 19.2625 20.1967 20 20.1967C20.7375 20.1967 21.4625 19.9342 22.0375 19.4467L26.3813 15.7342C27.0938 15.1405 27.5 14.2592 27.5 13.3217V9.80298H31.25C32.2813 9.80298 33.125 10.6405 33.125 11.678Z" fill="#196164"/>
<path d="M31.3231 24.2562L27.0714 19.3752C26.5965 18.8308 25.6615 18.8308 25.1866 19.3752L20.9352 24.2562C20.2222 25.0148 20.836 26.366 21.8773 26.3271C21.8773 26.3271 23.004 26.3271 23.004 26.3271V29.2452C23.004 29.9343 23.5646 30.4952 24.254 30.4952H28.004C28.6934 30.4952 29.254 29.9343 29.254 29.2452V26.3271H30.3807C31.4214 26.3655 32.0357 25.0156 31.3231 24.2562Z" fill="#C4F500"/>
<path d="M14.8134 19.3752C14.3386 18.8308 13.4035 18.8308 12.9287 19.3752L8.67695 24.2562C7.96462 25.0154 8.57839 26.3657 9.61938 26.3271C9.61934 26.3271 10.746 26.3271 10.746 26.3271V29.2452C10.746 29.9343 11.3067 30.4952 11.996 30.4952H15.746C16.4354 30.4952 16.996 29.9343 16.996 29.2452V26.3271H18.1228C19.1637 26.3656 19.7782 25.0154 19.0651 24.2562C19.0651 24.2562 14.8134 19.3752 14.8134 19.3752Z" fill="#C4F500"/>
<path d="M25.5875 8.12824L21.2216 4.3941C20.513 3.79779 19.4861 3.79718 18.775 4.39715L14.4077 8.1325C13.9896 8.49749 13.75 9.02179 13.75 9.57171V13.3217C13.75 13.8814 13.992 14.4075 14.4125 14.7652L18.7784 18.4993C19.488 19.0966 20.5152 19.0946 21.225 18.4963L25.5811 14.7707C26.0062 14.4173 26.25 13.8887 26.25 13.3217V9.57171C26.25 9.01385 26.0086 8.48773 25.5875 8.12824ZM24.7751 13.8155L20.416 17.5435C20.1755 17.7468 19.8254 17.7468 19.5874 17.5466L15.2237 13.8143C15.0836 13.6952 15 13.5109 15 13.3217V11.5177C20.9123 16.4959 19.1537 16.3899 25 11.5177V13.3217C25 13.5164 24.9204 13.6946 24.7751 13.8155Z" fill="#196164"/>
<path d="M36.25 31.0525H3.75002C0.453493 31.1541 0.440362 35.9463 3.75007 36.0525H36.25C39.5443 35.9518 39.5616 31.1592 36.25 31.0525ZM36.25 34.8025H23.9583C23.6033 34.2588 23.2149 33.5135 22.456 33.5526L17.544 33.5526C16.7808 33.5161 16.3987 34.2572 16.0417 34.8025H3.75002C2.11111 34.7628 2.09414 32.3471 3.75006 32.3025H36.25C37.8864 32.3413 37.908 34.7575 36.25 34.8025Z" fill="#196164"/>
</svg> -->

<svg xmlns="http://www.w3.org/2000/svg" width="82" height="82" viewBox="0 0 82 82" fill="none">
<circle cx="41" cy="41" r="41" fill="#fffff"/>
<g clip-path="url(#clip0_864188_184)">
<g filter="url(#filter0_d_864188_184)">
<path d="M55.25 25.7637H48.8376C49.28 26.1762 49.6026 26.6937 49.7976 27.2637H55.25C56.9076 27.2637 58.25 28.6062 58.25 30.2637V51.2637C58.25 52.9211 56.9076 54.2637 55.25 54.2637H26.75C25.0925 54.2637 23.75 52.9211 23.75 51.2637V30.2637C23.75 28.6062 25.0925 27.2637 26.75 27.2637H32.21C32.3976 26.6937 32.7276 26.1762 33.17 25.7637H26.75C24.2675 25.7637 22.25 27.7812 22.25 30.2637V51.2637C22.25 53.7461 24.2675 55.7637 26.75 55.7637H55.25C57.7326 55.7637 59.75 53.7461 59.75 51.2637V30.2637C59.75 27.7812 57.7326 25.7637 55.25 25.7637Z" fill="#F2F2F2"/>
</g>
<g filter="url(#filter1_d_864188_184)">
<path d="M56.75 31.0137V50.5137C56.75 51.7511 55.7376 52.7637 54.5 52.7637H27.5C26.2625 52.7637 25.25 51.7511 25.25 50.5137V31.0137C25.25 29.7687 26.2625 28.7637 27.5 28.7637H32V32.9861C32 34.0961 32.48 35.1461 33.32 35.8587L38.57 40.3437C39.245 40.9211 40.115 41.2361 41 41.2361C41.885 41.2361 42.755 40.9211 43.445 40.3361L48.6576 35.8811C49.5126 35.1687 50 34.1111 50 32.9861V28.7637H54.5C55.7376 28.7637 56.75 29.7687 56.75 31.0137Z" fill="#F2F2F2"/>
</g>
<path d="M54.5877 46.1079L49.4857 40.2507C48.9158 39.5974 47.7938 39.5974 47.2239 40.2507L42.1222 46.1079C41.2666 47.0182 42.0032 48.6397 43.2527 48.593H44.6048V52.0947C44.6048 52.9216 45.2775 53.5947 46.1048 53.5947H50.6048C51.4321 53.5947 52.1048 52.9216 52.1048 52.0947V48.593H53.4568C54.7057 48.6391 55.4428 47.0192 54.5877 46.1079Z" fill="#2976C0"/>
<path d="M34.776 40.2507C34.2062 39.5974 33.0841 39.5974 32.5143 40.2507L27.4122 46.1079C26.5574 47.0189 27.294 48.6393 28.5432 48.593H29.8951V52.0947C29.8951 52.9216 30.5679 53.5947 31.3951 53.5947H35.8951C36.7224 53.5947 37.3951 52.9216 37.3951 52.0947V48.593H38.7473C39.9963 48.6392 40.7337 47.0189 39.878 46.1079L34.776 40.2507Z" fill="#2976C0"/>
<path d="M47.705 26.7538L42.4659 22.2728C41.6156 21.5573 40.3833 21.5565 39.53 22.2765L34.2892 26.7589C33.7875 27.1969 33.5 27.8261 33.5 28.486V32.9859C33.5 33.6576 33.7904 34.2889 34.295 34.7181L39.5341 39.1991C40.3856 39.9158 41.6182 39.9134 42.47 39.1955L47.6973 34.7247C48.2074 34.3007 48.5 33.6663 48.5 32.9859V28.486C48.5 27.8165 48.2103 27.1852 47.705 26.7538ZM46.7301 33.5785L41.4992 38.0521C41.2106 38.2961 40.7905 38.2961 40.5049 38.0558L35.2684 33.5771C35.1003 33.4341 35 33.213 35 32.9859V30.8211C42.0948 36.795 39.9844 36.6678 47 30.8211V32.9859C47 33.2196 46.9045 33.4334 46.7301 33.5785Z" fill="#F2F2F2"/>
<g filter="url(#filter2_d_864188_184)">
<path d="M60.5001 54.2627H21.5001C17.5443 54.3846 17.5285 60.1353 21.5002 60.2627H60.5001C64.4533 60.1419 64.474 54.3907 60.5001 54.2627ZM60.5001 58.7627H45.7501C45.3241 58.1103 44.858 57.2159 43.9473 57.2628H38.0529C37.1371 57.219 36.6785 58.1083 36.2501 58.7627H21.5001C19.5334 58.7151 19.5131 55.8162 21.5002 55.7627H60.5001C62.4638 55.8093 62.4897 58.7087 60.5001 58.7627Z" fill="#F2F2F2"/>
</g>
</g>
<defs>
<filter id="filter0_d_864188_184" x="18.25" y="25.7637" width="45.5" height="38" filterUnits="userSpaceOnUse" color-interpolation-filters="sRGB">
<feFlood flood-opacity="0" result="BackgroundImageFix"/>
<feColorMatrix in="SourceAlpha" type="matrix" values="0 0 0 0 0 0 0 0 0 0 0 0 0 0 0 0 0 0 127 0" result="hardAlpha"/>
<feOffset dy="4"/>
<feGaussianBlur stdDeviation="2"/>
<feComposite in2="hardAlpha" operator="out"/>
<feColorMatrix type="matrix" values="0 0 0 0 0 0 0 0 0 0 0 0 0 0 0 0 0 0 0.25 0"/>
<feBlend mode="normal" in2="BackgroundImageFix" result="effect1_dropShadow_864188_184"/>
<feBlend mode="normal" in="SourceGraphic" in2="effect1_dropShadow_864188_184" result="shape"/>
</filter>
<filter id="filter1_d_864188_184" x="21.25" y="28.7637" width="39.5" height="32" filterUnits="userSpaceOnUse" color-interpolation-filters="sRGB">
<feFlood flood-opacity="0" result="BackgroundImageFix"/>
<feColorMatrix in="SourceAlpha" type="matrix" values="0 0 0 0 0 0 0 0 0 0 0 0 0 0 0 0 0 0 127 0" result="hardAlpha"/>
<feOffset dy="4"/>
<feGaussianBlur stdDeviation="2"/>
<feComposite in2="hardAlpha" operator="out"/>
<feColorMatrix type="matrix" values="0 0 0 0 0 0 0 0 0 0 0 0 0 0 0 0 0 0 0.25 0"/>
<feBlend mode="normal" in2="BackgroundImageFix" result="effect1_dropShadow_864188_184"/>
<feBlend mode="normal" in="SourceGraphic" in2="effect1_dropShadow_864188_184" result="shape"/>
</filter>
<filter id="filter2_d_864188_184" x="14.5273" y="54.2627" width="52.9453" height="14" filterUnits="userSpaceOnUse" color-interpolation-filters="sRGB">
<feFlood flood-opacity="0" result="BackgroundImageFix"/>
<feColorMatrix in="SourceAlpha" type="matrix" values="0 0 0 0 0 0 0 0 0 0 0 0 0 0 0 0 0 0 127 0" result="hardAlpha"/>
<feOffset dy="4"/>
<feGaussianBlur stdDeviation="2"/>
<feComposite in2="hardAlpha" operator="out"/>
<feColorMatrix type="matrix" values="0 0 0 0 0 0 0 0 0 0 0 0 0 0 0 0 0 0 0.25 0"/>
<feBlend mode="normal" in2="BackgroundImageFix" result="effect1_dropShadow_864188_184"/>
<feBlend mode="normal" in="SourceGraphic" in2="effect1_dropShadow_864188_184" result="shape"/>
</filter>
<clipPath id="clip0_864188_184">
<rect width="48" height="48" fill="white" transform="translate(17 17)"/>
</clipPath>
</defs>
</svg>
