<!-- <svg width="187" height="58" viewBox="0 0 187 58" fill="none" xmlns="http://www.w3.org/2000/svg">
<g clip-path="url(#clip0_4084_2529)">
<path d="M22.9838 29.0024C22.9812 27.014 23.5279 25.0636 24.5634 23.3662H14.623C13.5449 27.0463 13.5449 30.9584 14.623 34.6386H24.5634C23.5279 32.9411 22.9812 30.9907 22.9838 29.0024Z" fill="#196164"/>
<path d="M19.1892 18.1738C21.0467 18.1733 22.8731 18.6507 24.4928 19.56C26.1125 20.4693 27.4711 21.7799 28.4379 23.366H38.3783C37.1619 19.2191 34.6348 15.5778 31.1755 12.9874C27.7162 10.3971 23.5108 8.99707 19.1892 8.99707C14.8675 8.99707 10.6621 10.3971 7.20282 12.9874C3.74351 15.5778 1.21642 19.2191 0 23.366H9.94042C10.9073 21.7799 12.2658 20.4693 13.8856 19.56C15.5053 18.6507 17.3317 18.1733 19.1892 18.1738ZM19.1892 39.8305C17.3317 39.831 15.5053 39.3537 13.8856 38.4444C12.2658 37.5351 10.9073 36.2244 9.94042 34.6383H0C1.21642 38.7853 3.74351 42.4266 7.20282 45.0169C10.6621 47.6072 14.8675 49.0072 19.1892 49.0072C23.5108 49.0072 27.7162 47.6072 31.1755 45.0169C34.6348 42.4266 37.1619 38.7853 38.3783 34.6383H28.4379C27.4711 36.2244 26.1125 37.5351 24.4928 38.4444C22.8731 39.3537 21.0467 39.831 19.1892 39.8305Z" fill="#196164"/>
</g>
<path d="M50.2747 40V18.1818H59.0105C60.6156 18.1818 61.9544 18.4197 63.0269 18.8956C64.0993 19.3714 64.9054 20.032 65.4452 20.8771C65.985 21.7152 66.2548 22.6811 66.2548 23.7749C66.2548 24.6271 66.0844 25.3764 65.7435 26.0227C65.4026 26.6619 64.9338 27.1875 64.3372 27.5994C63.7477 28.0043 63.073 28.2919 62.3131 28.4624V28.6754C63.144 28.7109 63.9217 28.9453 64.6462 29.3786C65.3777 29.8118 65.9707 30.419 66.4253 31.2003C66.8798 31.9744 67.1071 32.8977 67.1071 33.9702C67.1071 35.1278 66.8195 36.1612 66.2442 37.0703C65.676 37.9723 64.8344 38.6861 63.7193 39.2116C62.6043 39.7372 61.23 40 59.5965 40H50.2747ZM54.8877 36.2287H58.6483C59.9338 36.2287 60.8713 35.9837 61.4608 35.4936C62.0503 34.9964 62.345 34.3359 62.345 33.5121C62.345 32.9084 62.1994 32.3757 61.9082 31.9141C61.6171 31.4524 61.2016 31.0902 60.6618 30.8274C60.1291 30.5646 59.4935 30.4332 58.7548 30.4332H54.8877V36.2287ZM54.8877 27.3118H58.3074C58.9395 27.3118 59.5006 27.2017 59.9906 26.9815C60.4878 26.7543 60.8784 26.4347 61.1625 26.0227C61.4537 25.6108 61.5993 25.1172 61.5993 24.5419C61.5993 23.7536 61.3188 23.1179 60.7577 22.6349C60.2037 22.152 59.4154 21.9105 58.3926 21.9105H54.8877V27.3118ZM68.5835 40V23.6364H73.1218V40H68.5835ZM70.8633 21.527C70.1886 21.527 69.6098 21.3033 69.1268 20.8558C68.651 20.4013 68.413 19.858 68.413 19.2259C68.413 18.6009 68.651 18.0646 69.1268 17.6172C69.6098 17.1626 70.1886 16.9354 70.8633 16.9354C71.538 16.9354 72.1133 17.1626 72.5892 17.6172C73.0721 18.0646 73.3136 18.6009 73.3136 19.2259C73.3136 19.858 73.0721 20.4013 72.5892 20.8558C72.1133 21.3033 71.538 21.527 70.8633 21.527ZM75.2321 40V37.294L83.2434 27.3757V27.2585H75.5091V23.6364H88.7086V26.5874L81.1873 36.2607V36.3778H88.9856V40H75.2321ZM91.1012 18.1818H96.7901L102.799 32.8409H103.054L109.063 18.1818H114.752V40H110.277V25.799H110.096L104.45 39.8935H101.403L95.7567 25.7457H95.5756V40H91.1012V18.1818ZM121.693 40.3089C120.649 40.3089 119.719 40.1278 118.902 39.7656C118.085 39.3963 117.439 38.853 116.963 38.1357C116.494 37.4112 116.26 36.5092 116.26 35.4297C116.26 34.5206 116.427 33.7571 116.761 33.1392C117.095 32.5213 117.549 32.0241 118.124 31.6477C118.7 31.2713 119.353 30.9872 120.085 30.7955C120.823 30.6037 121.597 30.4688 122.407 30.3906C123.359 30.2912 124.126 30.1989 124.708 30.1136C125.291 30.0213 125.713 29.8864 125.976 29.7088C126.239 29.5312 126.37 29.2685 126.37 28.9205V28.8565C126.37 28.1818 126.157 27.6598 125.731 27.2905C125.312 26.9212 124.715 26.7365 123.941 26.7365C123.124 26.7365 122.475 26.9176 121.992 27.2798C121.509 27.6349 121.189 28.0824 121.033 28.6222L116.835 28.2812C117.048 27.2869 117.467 26.4276 118.092 25.7031C118.717 24.9716 119.524 24.4105 120.511 24.0199C121.505 23.6222 122.656 23.4233 123.963 23.4233C124.872 23.4233 125.742 23.5298 126.573 23.7429C127.411 23.956 128.153 24.2862 128.799 24.7337C129.453 25.1811 129.967 25.7564 130.344 26.4595C130.72 27.1555 130.909 27.9901 130.909 28.9631V40H126.605V37.7308H126.477C126.214 38.2422 125.862 38.6932 125.422 39.0838C124.982 39.4673 124.453 39.7692 123.835 39.9893C123.217 40.2024 122.503 40.3089 121.693 40.3089ZM122.993 37.1768C123.661 37.1768 124.25 37.0455 124.762 36.7827C125.273 36.5128 125.674 36.1506 125.965 35.696C126.257 35.2415 126.402 34.7266 126.402 34.1513V32.4148C126.26 32.5071 126.065 32.5923 125.816 32.6705C125.575 32.7415 125.301 32.8089 124.996 32.8729C124.691 32.9297 124.385 32.983 124.08 33.0327C123.774 33.0753 123.497 33.1143 123.249 33.1499C122.716 33.228 122.251 33.3523 121.853 33.5227C121.455 33.6932 121.146 33.924 120.926 34.2152C120.706 34.4993 120.596 34.8544 120.596 35.2805C120.596 35.8984 120.82 36.3707 121.267 36.6974C121.722 37.017 122.297 37.1768 122.993 37.1768ZM146.605 28.3026L142.45 28.5582C142.379 28.2031 142.226 27.8835 141.992 27.5994C141.757 27.3082 141.448 27.0774 141.065 26.907C140.688 26.7294 140.237 26.6406 139.712 26.6406C139.009 26.6406 138.416 26.7898 137.933 27.0881C137.45 27.3793 137.208 27.7699 137.208 28.2599C137.208 28.6506 137.365 28.9808 137.677 29.2507C137.99 29.5206 138.526 29.7372 139.286 29.9006L142.247 30.4972C143.838 30.8239 145.024 31.3494 145.806 32.0739C146.587 32.7983 146.977 33.75 146.977 34.929C146.977 36.0014 146.661 36.9425 146.029 37.7521C145.404 38.5618 144.545 39.1939 143.451 39.6484C142.365 40.0959 141.111 40.3196 139.69 40.3196C137.524 40.3196 135.798 39.8686 134.513 38.9666C133.235 38.0575 132.485 36.8217 132.265 35.2592L136.729 35.0249C136.864 35.6854 137.19 36.1896 137.709 36.5376C138.227 36.8786 138.891 37.049 139.701 37.049C140.497 37.049 141.136 36.8963 141.619 36.5909C142.109 36.2784 142.357 35.8771 142.365 35.3871C142.357 34.9751 142.183 34.6378 141.842 34.375C141.502 34.1051 140.976 33.8991 140.266 33.7571L137.432 33.1925C135.834 32.8729 134.644 32.3189 133.863 31.5305C133.089 30.7422 132.702 29.7372 132.702 28.5156C132.702 27.4645 132.986 26.5589 133.554 25.799C134.129 25.0391 134.936 24.4531 135.972 24.0412C137.016 23.6293 138.238 23.4233 139.637 23.4233C141.704 23.4233 143.33 23.8601 144.516 24.7337C145.71 25.6072 146.406 26.7969 146.605 28.3026ZM157.099 23.6364V27.0455H147.245V23.6364H157.099ZM149.482 19.7159H154.02V34.9716C154.02 35.3906 154.084 35.7173 154.212 35.9517C154.34 36.179 154.517 36.3388 154.745 36.4311C154.979 36.5234 155.249 36.5696 155.554 36.5696C155.767 36.5696 155.98 36.5518 156.193 36.5163C156.407 36.4737 156.57 36.4418 156.684 36.4205L157.397 39.7976C157.17 39.8686 156.85 39.9503 156.439 40.0426C156.027 40.142 155.526 40.2024 154.936 40.2237C153.843 40.2663 152.884 40.1207 152.06 39.7869C151.243 39.4531 150.608 38.9347 150.153 38.2315C149.698 37.5284 149.475 36.6406 149.482 35.5682V19.7159ZM165.897 40.3196C164.214 40.3196 162.765 39.9787 161.55 39.2969C160.343 38.608 159.413 37.6349 158.759 36.3778C158.106 35.1136 157.779 33.6186 157.779 31.8928C157.779 30.2095 158.106 28.7322 158.759 27.4609C159.413 26.1896 160.332 25.1989 161.518 24.4886C162.712 23.7784 164.111 23.4233 165.716 23.4233C166.795 23.4233 167.8 23.5973 168.731 23.9453C169.668 24.2862 170.485 24.8011 171.181 25.4901C171.884 26.179 172.431 27.0455 172.822 28.0895C173.212 29.1264 173.408 30.3409 173.408 31.733V32.9794H159.59V30.1669H169.136C169.136 29.5135 168.994 28.9347 168.709 28.4304C168.425 27.9261 168.031 27.532 167.527 27.2479C167.03 26.9567 166.451 26.8111 165.79 26.8111C165.102 26.8111 164.491 26.9709 163.958 27.2905C163.432 27.603 163.021 28.0256 162.722 28.5582C162.424 29.0838 162.271 29.6697 162.264 30.3161V32.9901C162.264 33.7997 162.413 34.4993 162.712 35.0888C163.017 35.6783 163.447 36.1328 164.001 36.4524C164.555 36.772 165.212 36.9318 165.972 36.9318C166.476 36.9318 166.937 36.8608 167.356 36.7188C167.776 36.5767 168.134 36.3636 168.432 36.0795C168.731 35.7955 168.958 35.4474 169.114 35.0355L173.312 35.3125C173.099 36.321 172.662 37.2017 172.001 37.9545C171.348 38.7003 170.503 39.2827 169.466 39.7017C168.436 40.1136 167.246 40.3196 165.897 40.3196ZM174.929 40V23.6364H179.329V26.4915H179.5C179.798 25.4759 180.299 24.7088 181.002 24.1903C181.705 23.6648 182.514 23.402 183.431 23.402C183.658 23.402 183.903 23.4162 184.166 23.4446C184.429 23.473 184.659 23.5121 184.858 23.5618V27.5888C184.645 27.5249 184.35 27.468 183.974 27.4183C183.598 27.3686 183.253 27.3438 182.941 27.3438C182.273 27.3438 181.676 27.4893 181.151 27.7805C180.632 28.0646 180.22 28.4624 179.915 28.9737C179.617 29.4851 179.468 30.0746 179.468 30.7422V40H174.929Z" fill="#19352D"/>
<defs>
<clipPath id="clip0_4084_2529">
<rect width="38.3783" height="40" fill="white" transform="translate(0 9)"/>
</clipPath>
</defs>
</svg> -->


<svg xmlns="http://www.w3.org/2000/svg" width="187" height="58" xmlns:xlink="http://www.w3.org/1999/xlink" viewBox="0 0 746.02 276.93"><defs><style>.cls-1{fill:none;}.cls-2{isolation:isolate;}.cls-3{clip-path:url(#clip-path);}.cls-4{clip-path:url(#clip-path-2);}.cls-10,.cls-11,.cls-14,.cls-15,.cls-16,.cls-17,.cls-18,.cls-19,.cls-20,.cls-25,.cls-5,.cls-6,.cls-7,.cls-8,.cls-9{mix-blend-mode:multiply;}.cls-5{fill:url(#linear-gradient);}.cls-6{fill:url(#linear-gradient-2);}.cls-7{fill:url(#linear-gradient-3);}.cls-8{fill:url(#linear-gradient-4);}.cls-9{fill:url(#linear-gradient-5);}.cls-10{fill:url(#linear-gradient-6);}.cls-11{fill:url(#linear-gradient-7);}.cls-12{clip-path:url(#clip-path-3);}.cls-13{clip-path:url(#clip-path-4);}.cls-14{fill:url(#linear-gradient-8);}.cls-15{fill:url(#linear-gradient-9);}.cls-16{fill:url(#linear-gradient-10);}.cls-17{fill:url(#linear-gradient-11);}.cls-18{fill:url(#linear-gradient-12);}.cls-19{fill:url(#linear-gradient-13);}.cls-20{fill:url(#linear-gradient-14);}.cls-21{mix-blend-mode:screen;fill:url(#radial-gradient);}.cls-22{fill:#349dff;}.cls-23{clip-path:url(#clip-path-6);}.cls-24{clip-path:url(#clip-path-7);}.cls-25{fill:url(#linear-gradient-15);}.cls-26{fill:#016acf;}.cls-27{fill:#0990f2;}.cls-28{fill:#0ab4ef;}.cls-29{fill:#0552cc;}</style><clipPath id="clip-path"><path id="SVGID" class="cls-1" d="M-435.84-782.47l-2,85.18,251.23,247.7c-42.51,36.16-86.58,47.76-146.77,47.76h-24L-492.14-522.56v-79.55l157.93,144.25c45.84,0,66.24-15.29,66.24-15.29L-492.14-664.29V-889.2h158.8c134.57,0,243.67,109.09,243.67,243.7,0,53-15,100-43.65,140Z"/></clipPath><clipPath id="clip-path-2"><rect class="cls-1" x="-864.14" y="-1080.92" width="1468.43" height="978.95"/></clipPath><linearGradient id="linear-gradient" x1="-929.86" y1="-402.15" x2="-929.86" y2="-575.42" gradientTransform="translate(553.73 -26.77)" gradientUnits="userSpaceOnUse"><stop offset="0.3" stop-color="#fff"/><stop offset="0.6" stop-color="#fdfdfd"/><stop offset="0.71" stop-color="#f6f6f7"/><stop offset="0.78" stop-color="#ebebeb"/><stop offset="0.85" stop-color="#dadadb"/><stop offset="0.9" stop-color="#c4c4c6"/><stop offset="0.95" stop-color="#a8a9ab"/><stop offset="0.99" stop-color="#898a8d"/><stop offset="1" stop-color="#808184"/></linearGradient><linearGradient id="linear-gradient-2" x1="-929.69" y1="-17.47" x2="-929.69" y2="-190.74" gradientTransform="translate(281.67 -139.32)" xlink:href="#linear-gradient"/><linearGradient id="linear-gradient-3" x1="-12.52" y1="248.81" x2="-12.52" y2="75.54" gradientTransform="translate(460.76 -428.94)" xlink:href="#linear-gradient"/><linearGradient id="linear-gradient-4" x1="-12.52" y1="402.49" x2="-12.52" y2="229.22" gradientTransform="translate(569.43 -473.95)" xlink:href="#linear-gradient"/><linearGradient id="linear-gradient-5" x1="-12.52" y1="17.88" x2="-12.52" y2="-155.39" gradientTransform="translate(297.47 -361.3)" xlink:href="#linear-gradient"/><linearGradient id="linear-gradient-6" x1="-12.52" y1="-135.95" x2="-12.52" y2="-309.21" gradientTransform="translate(188.7 -316.24)" xlink:href="#linear-gradient"/><linearGradient id="linear-gradient-7" x1="21.2" y1="-77.55" x2="21.2" y2="-250.82" gradientTransform="translate(220.12 -357.19)" gradientUnits="userSpaceOnUse"><stop offset="0.3" stop-color="#fff"/><stop offset="0.62" stop-color="#fdfdfd"/><stop offset="0.74" stop-color="#f6f6f7"/><stop offset="0.82" stop-color="#ebebeb"/><stop offset="0.89" stop-color="#dadadb"/><stop offset="0.95" stop-color="#c4c5c7"/><stop offset="1" stop-color="#a9aaad"/><stop offset="1" stop-color="#a7a8ab"/></linearGradient><clipPath id="clip-path-3"><path id="SVGID-2" data-name="SVGID" class="cls-1" d="M-543.09,7.77l-.8,34.93L-441,143.85c-17.44,14.83-35.33,20-60,20h-9.86l-55.27-49.51V81.73l64.77,59.16c18.8,0,27.16-6.27,27.16-6.27l-91.93-78.39V-36H-501a100,100,0,0,1,99.93,99.95c0,21.72-6.13,41-17.91,57.43Z"/></clipPath><clipPath id="clip-path-4"><rect class="cls-1" x="-718.74" y="-114.63" width="602.22" height="401.48"/></clipPath><linearGradient id="linear-gradient-8" x1="-558.2" y1="-174.94" x2="-558.2" y2="-245.99" gradientTransform="translate(248.07 154.52)" xlink:href="#linear-gradient"/><linearGradient id="linear-gradient-9" x1="-583.09" y1="-283.75" x2="-583.09" y2="-354.81" gradientTransform="translate(332.31 168.78)" xlink:href="#linear-gradient"/><linearGradient id="linear-gradient-10" x1="-800.8" y1="96.77" x2="-800.8" y2="25.71" gradientTransform="translate(620.27 158.02)" xlink:href="#linear-gradient"/><linearGradient id="linear-gradient-11" x1="-800.8" y1="159.8" x2="-800.8" y2="88.74" gradientTransform="translate(664.84 139.56)" xlink:href="#linear-gradient"/><linearGradient id="linear-gradient-12" x1="-800.8" y1="2.06" x2="-800.8" y2="-68.99" gradientTransform="translate(553.31 185.76)" xlink:href="#linear-gradient"/><linearGradient id="linear-gradient-13" x1="-774.37" y1="11.49" x2="-774.37" y2="-61.02" gradientTransform="translate(342.42 -390.29) rotate(-45)" xlink:href="#linear-gradient"/><linearGradient id="linear-gradient-14" x1="-773.59" y1="-30.1" x2="-773.59" y2="-101.16" gradientTransform="translate(522.59 175.94)" xlink:href="#linear-gradient-7"/><radialGradient id="radial-gradient" cx="-687.96" cy="-137.25" r="690.26" gradientUnits="userSpaceOnUse"><stop offset="0" stop-color="#27a8e0"/><stop offset="0.17" stop-color="#1e80aa"/><stop offset="0.39" stop-color="#13536e"/><stop offset="0.59" stop-color="#0b2f3f"/><stop offset="0.76" stop-color="#05151c"/><stop offset="0.91" stop-color="#010608"/><stop offset="1"/></radialGradient><clipPath id="clip-path-6"><path id="SVGID-3" data-name="SVGID" class="cls-1" d="M43-599.15l-.85,37.06L151.25-454.77c-18.5,15.74-37.48,21.24-63.67,21.24H77.12L18.48-486.06v-34.61L87.2-457.91c19.94,0,28.82-6.65,28.82-6.65L18.48-547.73v-97.86h69.1a106,106,0,0,1,106,106c0,23-6.51,43.53-19,60.93Z"/></clipPath><clipPath id="clip-path-7"><rect class="cls-1" x="-143.37" y="-729.01" width="638.92" height="425.95"/></clipPath><linearGradient id="linear-gradient-15" x1="49.29" y1="175.8" x2="49.29" y2="100.41" gradientTransform="translate(425.64 -465.59)" xlink:href="#linear-gradient"/></defs><title>Logo</title><g class="cls-2"><g id="Layer_1" data-name="Layer 1"><g class="cls-3"><g class="cls-4"><rect class="cls-5" x="-1361.38" y="-602.18" width="1970.53" height="173.27" transform="translate(-474.71 114.95) rotate(45)"/><rect class="cls-6" x="-1633.28" y="-330.06" width="1970.53" height="173.27" transform="translate(-361.93 386.92) rotate(45)"/><rect class="cls-7" x="-537.02" y="-353.39" width="1970.53" height="173.27" transform="translate(319.92 238.83) rotate(-45)"/><rect class="cls-8" x="-428.35" y="-244.73" width="1970.53" height="173.27" transform="translate(274.91 347.49) rotate(-45)"/><rect class="cls-9" x="-700.31" y="-516.68" width="1970.53" height="173.27" transform="translate(387.55 75.54) rotate(-45)"/><rect class="cls-10" x="-809.08" y="-625.45" width="1970.53" height="173.27" transform="translate(432.61 -33.23) rotate(-45)"/><rect class="cls-11" x="-743.95" y="-608" width="1970.53" height="173.27" transform="translate(439.34 17.93) rotate(-45)"/></g></g><g class="cls-12"><g class="cls-13"><rect class="cls-14" x="-714.19" y="-91.48" width="808.13" height="71.06" transform="translate(-130.39 202.9) rotate(45)"/><rect class="cls-15" x="-654.84" y="-186.03" width="808.13" height="71.06" transform="translate(-179.87 133.25) rotate(45)"/><rect class="cls-16" x="-584.58" y="183.73" width="808.13" height="71.06" transform="translate(-207.92 -63.42) rotate(-45)"/><rect class="cls-17" x="-540.02" y="228.3" width="808.13" height="71.06" transform="translate(-226.37 -18.86) rotate(-45)"/><rect class="cls-18" x="-651.55" y="116.77" width="808.13" height="71.06" transform="translate(-180.18 -130.39) rotate(-45)"/><polygon class="cls-19" points="18.75 -152.91 -552.69 418.53 -464.04 432.43 107.4 -139.01 18.75 -152.91"/><rect class="cls-20" x="-655.05" y="74.78" width="808.13" height="71.06" transform="translate(-151.51 -145.16) rotate(-45)"/></g><g class="cls-13"><circle class="cls-21" cx="-687.96" cy="-137.25" r="690.26"/></g></g><path d="M252.85,210a9.94,9.94,0,0,1-3.68-2l1.18-2.49a9.72,9.72,0,0,0,3.27,1.87,12,12,0,0,0,4.09.72,7.36,7.36,0,0,0,4.15-1,2.9,2.9,0,0,0,1.37-2.5,2.49,2.49,0,0,0-.75-1.87,5.14,5.14,0,0,0-1.85-1.1c-.73-.25-1.77-.54-3.11-.86a30.31,30.31,0,0,1-4.06-1.21,6.69,6.69,0,0,1-2.65-1.86,5,5,0,0,1-1.1-3.4,5.71,5.71,0,0,1,.94-3.22,6.45,6.45,0,0,1,2.85-2.3,11.68,11.68,0,0,1,4.76-.86,15.11,15.11,0,0,1,3.89.51,10.29,10.29,0,0,1,3.28,1.47l-1.05,2.55a11.44,11.44,0,0,0-3-1.36,11.07,11.07,0,0,0-3.12-.46,6.88,6.88,0,0,0-4.07,1,3,3,0,0,0-1.36,2.55,2.45,2.45,0,0,0,.77,1.87,5.3,5.3,0,0,0,1.9,1.11,28.55,28.55,0,0,0,3.08.85,31.16,31.16,0,0,1,4.05,1.21,6.82,6.82,0,0,1,2.63,1.85,4.9,4.9,0,0,1,1.1,3.35,5.65,5.65,0,0,1-1,3.2,6.36,6.36,0,0,1-2.9,2.3,12.08,12.08,0,0,1-4.79.85A15,15,0,0,1,252.85,210Z"/><path d="M306.89,209.31a11,11,0,0,1-4.25-4.1,11.76,11.76,0,0,1,0-11.67,11,11,0,0,1,4.25-4.1,13.23,13.23,0,0,1,12.16,0,10.9,10.9,0,0,1,4.24,4.09,11.95,11.95,0,0,1,0,11.7,11,11,0,0,1-4.24,4.08,13.15,13.15,0,0,1-12.16,0Zm10.51-2.47a8.19,8.19,0,0,0,3.1-3.08,9.07,9.07,0,0,0,0-8.77,8.26,8.26,0,0,0-3.1-3.08A8.78,8.78,0,0,0,313,190.8a9,9,0,0,0-4.45,1.11,8.2,8.2,0,0,0-3.13,3.08,9.07,9.07,0,0,0,0,8.77,8.13,8.13,0,0,0,3.13,3.08A8.89,8.89,0,0,0,313,208,8.69,8.69,0,0,0,317.4,206.84Z"/><path d="M361.59,188.21h3.19v19.56h12.09v2.77H361.59Z"/><path d="M414.35,208.24q-2.49-2.55-2.49-7.33v-12.7h3.19v12.57q0,7.17,6.28,7.18a6,6,0,0,0,4.69-1.77q1.64-1.77,1.63-5.41V188.21h3.09v12.7q0,4.82-2.49,7.35a10.75,10.75,0,0,1-13.9,0Z"/><path d="M473.19,191h-7.65v-2.78H484V191h-7.66v19.55h-3.16Z"/><path d="M519.38,188.21h3.19v22.33h-3.19Z"/><path d="M565.14,209.31a11,11,0,0,1-4.25-4.1,11.76,11.76,0,0,1,0-11.67,11,11,0,0,1,4.25-4.1,13.23,13.23,0,0,1,12.16,0,10.9,10.9,0,0,1,4.24,4.09,11.95,11.95,0,0,1,0,11.7,11,11,0,0,1-4.24,4.08,13.15,13.15,0,0,1-12.16,0Zm10.51-2.47a8.19,8.19,0,0,0,3.1-3.08,9.07,9.07,0,0,0,0-8.77,8.26,8.26,0,0,0-3.1-3.08,8.78,8.78,0,0,0-4.41-1.11,9,9,0,0,0-4.45,1.11,8.2,8.2,0,0,0-3.13,3.08,9.07,9.07,0,0,0,0,8.77,8.13,8.13,0,0,0,3.13,3.08,8.89,8.89,0,0,0,4.45,1.12A8.69,8.69,0,0,0,575.65,206.84Z"/><path d="M639.05,188.21v22.33h-2.62L623,193.89v16.65h-3.19V188.21h2.62l13.4,16.65V188.21Z"/><path d="M679.28,210a9.94,9.94,0,0,1-3.68-2l1.18-2.49a9.76,9.76,0,0,0,3.26,1.87,12,12,0,0,0,4.1.72,7.38,7.38,0,0,0,4.15-1,2.9,2.9,0,0,0,1.37-2.5,2.49,2.49,0,0,0-.75-1.87,5.14,5.14,0,0,0-1.85-1.1c-.73-.25-1.77-.54-3.11-.86a30.31,30.31,0,0,1-4.06-1.21,6.69,6.69,0,0,1-2.65-1.86,5,5,0,0,1-1.1-3.4,5.71,5.71,0,0,1,.94-3.22,6.45,6.45,0,0,1,2.85-2.3,11.68,11.68,0,0,1,4.76-.86,15.11,15.11,0,0,1,3.89.51,10.29,10.29,0,0,1,3.28,1.47l-1.05,2.55a11.59,11.59,0,0,0-3-1.36,11.07,11.07,0,0,0-3.12-.46,6.88,6.88,0,0,0-4.07,1,3,3,0,0,0-1.36,2.55,2.45,2.45,0,0,0,.77,1.87,5.3,5.3,0,0,0,1.9,1.11A28.55,28.55,0,0,0,685,198a32.16,32.16,0,0,1,4,1.21,6.82,6.82,0,0,1,2.63,1.85,4.9,4.9,0,0,1,1.1,3.35,5.65,5.65,0,0,1-1,3.2,6.42,6.42,0,0,1-2.9,2.3,12.08,12.08,0,0,1-4.79.85A15,15,0,0,1,679.28,210Z"/><path class="cls-22" d="M214.42,93.05h39.22a54.09,54.09,0,0,1,23.46,4.83,36.77,36.77,0,0,1,15.81,13.81q5.63,9,5.62,21.14T292.91,154a36.71,36.71,0,0,1-15.81,13.81,54.09,54.09,0,0,1-23.46,4.83H214.42Zm38.08,58.66q8.64,0,13.81-5t5.17-13.93q0-9-5.17-13.92T252.5,114H241.24v37.74Z"/><path class="cls-22" d="M308.31,93.05h26.83v79.57H308.31Z"/><path class="cls-22" d="M400.73,130.67H424v33.65a54.33,54.33,0,0,1-16.37,7.51,67.69,67.69,0,0,1-18.3,2.61,48.51,48.51,0,0,1-22.85-5.29,39.51,39.51,0,0,1-15.86-14.77,40.79,40.79,0,0,1-5.74-21.55,40.78,40.78,0,0,1,5.74-21.54,39.28,39.28,0,0,1,16-14.77,50.19,50.19,0,0,1,23.25-5.29,53.44,53.44,0,0,1,21,3.92,39.5,39.5,0,0,1,15.4,11.43L409.14,121.7q-7.5-8.76-17.85-8.76-8.87,0-14.1,5.35T372,132.83q0,9,5.17,14.44T391,152.73a25.28,25.28,0,0,0,9.78-1.94Z"/><path class="cls-22" d="M435.51,93.05h26.83v79.57H435.51Z"/><path d="M493.94,169.1a40.78,40.78,0,0,1,0-72.52,52.44,52.44,0,0,1,46.15,0,40.8,40.8,0,0,1,0,72.52,52.53,52.53,0,0,1-46.15,0Zm32.11-18.81a17.53,17.53,0,0,0,6.42-6.94,24.33,24.33,0,0,0,0-21,17.5,17.5,0,0,0-6.42-6.93,17.9,17.9,0,0,0-18.08,0,17.57,17.57,0,0,0-6.42,6.93,24.42,24.42,0,0,0,0,21,17.6,17.6,0,0,0,6.42,6.94,18,18,0,0,0,18.08,0Z"/><path d="M581.24,164.55Q571,154.67,571,136.82V93.05h26.83v43q0,8.74,3.13,12.73t9,4q5.91,0,9-4T622.16,136v-43h26.37v43.77q0,17.84-10.23,27.73t-28.53,9.89Q591.47,174.44,581.24,164.55Z"/><path d="M671.21,172.22a51.78,51.78,0,0,1-15.4-6l8.64-19.55A55.56,55.56,0,0,0,677.18,152a49.64,49.64,0,0,0,13.53,2q5.56,0,8-1.08a3.46,3.46,0,0,0,2.38-3.24q0-2.5-3.12-3.75a68.6,68.6,0,0,0-10.29-2.73A116.91,116.91,0,0,1,672.29,139a26.17,26.17,0,0,1-10.68-7.27q-4.56-5.07-4.55-13.7a23.62,23.62,0,0,1,4.2-13.64q4.22-6.14,12.57-9.67t20.29-3.52A73.37,73.37,0,0,1,710.2,93a50.07,50.07,0,0,1,13.93,5.17l-8.07,19.43q-11.71-5.89-22.17-5.91t-10.34,5q0,2.39,3.07,3.58a65.56,65.56,0,0,0,10.11,2.55,104.29,104.29,0,0,1,15.35,3.93A26.78,26.78,0,0,1,722.94,134q4.59,5,4.6,13.64a23.29,23.29,0,0,1-4.21,13.59q-4.2,6.08-12.56,9.66t-20.29,3.58A83.38,83.38,0,0,1,671.21,172.22Z"/><g class="cls-23"><g class="cls-24"><rect class="cls-25" x="46.24" y="-365.17" width="857.39" height="75.39" transform="translate(370.67 239.91) rotate(-45)"/></g></g><path class="cls-26" d="M136.79,209.69l14.1,14.1,0,0a90.24,90.24,0,0,1-13.54,9.55,78.6,78.6,0,0,1-17,7.24h0a95.89,95.89,0,0,1-17.9,3.41h0c-4.69.47-9.61.69-14.81.69H77.12l-.12-.11-.55-.49L65.12,234l0,0-.65-.59L40.15,211.6l0,0L38,209.68,18.48,192.19v-6l-.11-.11,0,0h0l0,0,.11-.12V157.58l5.21,4.76,9.58,8.74,0,0L49.61,186l8.4,7.67,0,0,17.49,16,7.23,6.6,0,0,4.42,4a78.29,78.29,0,0,0,12-.88h0c11.57-1.82,16.84-5.77,16.84-5.77l-4.7-4L99.49,199.6h0L83.55,186l-9.61-8.2,0,0L55.79,162.34,48.38,156l0,0L28,138.67l-5.2-4.43,0,0-4.32-3.68V91.41L42,115l0,0h0l23.64,23.64,0,0h0l23.64,23.64,0,0,20,20L113.1,186l0,0h0l23.64,23.65,0,0h0Z"/><path class="cls-26" d="M193.6,138.67v0a114.8,114.8,0,0,1-1,15.1.13.13,0,0,1,0,.06c-.37,2.87-.87,5.7-1.47,8.48-.4,1.9-.87,3.77-1.38,5.62a.09.09,0,0,1,0,0,98.31,98.31,0,0,1-6.91,18,99.82,99.82,0,0,1-8.23,13.62l-6.36-5.82-.51-.47-7.3-7.3h0l0,0h0l-47.33-47.33h0L89.4,115h0l0,0h0L65.71,91.35l0,0h0L42,67.68,18.48,91.24V44.12L18.34,44h0l0,0,.11-.12V32.67h69.1a105.26,105.26,0,0,1,15.27,1.1s0,0,0,0a103.81,103.81,0,0,1,16.61,3.79,0,0,0,0,1,0,0A102.84,102.84,0,0,1,135.25,44a104.92,104.92,0,0,1,15.56,9.6l0,0A106.79,106.79,0,0,1,174.2,77.54v0a105.85,105.85,0,0,1,15.33,32v0q.76,2.69,1.39,5.43.94,4.13,1.55,8.36a.13.13,0,0,1,0,.06A105.08,105.08,0,0,1,193.6,138.67Z"/><polygon class="cls-27" points="29.71 32.67 18.48 43.91 18.4 43.98 18.37 44.02 18.34 43.98 18.35 43.98 18.37 43.97 18.48 43.84 18.48 32.67 29.71 32.67"/><polygon class="cls-27" points="77.05 32.67 65.71 44.02 65.68 43.98 54.37 32.67 77.05 32.67"/><path class="cls-27" d="M119.52,37.58,113.09,44l0,0h0L102.85,33.77s0,0,0,0a103.81,103.81,0,0,1,16.61,3.79A0,0,0,0,1,119.52,37.58Z"/><polygon class="cls-26" points="18.39 43.98 18.37 44.02 18.34 43.98 18.39 43.98"/><polygon class="cls-27" points="18.39 43.98 18.35 43.98 18.37 43.97 18.39 43.98"/><polygon class="cls-28" points="42.07 67.66 42.07 67.67 42.04 67.69 18.48 91.25 18.48 67.66 42.07 67.66"/><polygon class="cls-27" points="42.06 67.66 18.48 67.66 18.48 44.13 18.34 43.98 18.35 43.98 18.37 43.97 18.39 43.98 18.4 43.98 18.48 44.08 42.04 67.63 42.04 67.64 42.06 67.66"/><polygon class="cls-28" points="65.74 43.98 42.07 67.66 42.07 67.67 42.04 67.69 42.02 67.67 42.01 67.66 18.48 44.13 18.34 43.98 65.74 43.98"/><polygon class="cls-28" points="65.73 43.98 18.35 43.98 18.37 43.97 18.48 43.84 29.66 32.67 54.42 32.67 65.71 43.97 65.73 43.98"/><polygon class="cls-26" points="89.41 67.66 89.41 67.67 89.4 67.67 89.38 67.69 65.74 91.33 65.73 91.33 65.71 91.36 65.69 91.33 65.68 91.33 42.04 67.69 42.02 67.67 42.01 67.66 89.41 67.66"/><polygon class="cls-27" points="42.01 67.66 65.71 43.96 89.41 67.66 42.01 67.66"/><polygon class="cls-28" points="113.08 43.99 89.38 67.68 65.68 43.99 113.08 43.99"/><path class="cls-26" d="M113.07,44H65.69L77,32.67H87.58a105.26,105.26,0,0,1,15.27,1.1s0,0,0,0Z"/><polygon class="cls-28" points="136.78 67.66 113.09 91.36 89.39 67.66 136.78 67.66"/><polygon class="cls-27" points="89.39 67.66 113.09 43.96 136.78 67.66 89.39 67.66"/><path class="cls-27" d="M150.81,53.58l0,0L136.79,67.65h0l0,0L113.07,44h22.18A104.92,104.92,0,0,1,150.81,53.58Z"/><path class="cls-28" d="M119.52,37.58A102.84,102.84,0,0,1,135.25,44H113.09l6.39-6.4A0,0,0,0,1,119.52,37.58Z"/><path class="cls-27" d="M174.2,77.54v0L160.46,91.33h0v0h0L136.74,67.66h29.54A106.5,106.5,0,0,1,174.2,77.54Z"/><path class="cls-28" d="M166.28,67.65H136.74l0,0,14.05-14,0,0A106.64,106.64,0,0,1,166.28,67.65Z"/><polygon class="cls-26" points="42.06 115 42.04 115.03 42.04 115.03 22.83 134.25 22.8 134.22 18.48 130.53 18.48 115 42.06 115"/><polygon class="cls-28" points="42.06 115 18.48 115 18.48 91.42 42.04 114.97 42.06 115"/><polygon class="cls-26" points="42.06 115 42.04 115.03 42.02 115 42.01 115 18.48 91.47 18.48 91.42 42.04 114.97 42.06 115"/><polygon class="cls-26" points="65.73 91.33 65.71 91.36 65.69 91.33 65.73 91.33"/><polygon class="cls-26" points="65.73 91.33 65.68 91.33 42.04 67.69 18.48 91.25 18.48 91.19 42.02 67.67 42.02 67.66 42.04 67.64 42.06 67.66 42.07 67.67 65.71 91.31 65.73 91.33"/><polygon class="cls-28" points="65.73 138.68 65.71 138.69 65.69 138.68 65.68 138.68 42.15 115.14 42.04 115.03 42.04 115.03 42.02 115 42.07 115 65.71 138.65 65.73 138.68"/><polygon class="cls-28" points="89.4 115 89.4 115.02 89.38 115.03 89.36 115 89.4 115"/><polygon class="cls-27" points="42.06 115 42.02 115 42.04 114.97 42.06 115"/><polygon class="cls-27" points="89.4 115 89.4 115 89.35 115 65.71 91.36 65.69 91.33 65.71 91.31 65.73 91.33 65.74 91.33 89.4 115"/><polygon class="cls-28" points="113.07 91.33 113.07 91.34 89.41 115 89.4 115 89.4 115.02 89.38 115.03 89.36 115 89.35 115 65.71 91.36 65.69 91.33 113.07 91.33"/><polygon class="cls-26" points="65.68 91.33 89.38 67.63 113.08 91.33 65.68 91.33"/><polygon class="cls-28" points="136.78 115 136.76 115.03 113.12 138.68 113.11 138.68 113.09 138.69 113.07 138.69 113.07 138.68 113.06 138.68 89.4 115.02 89.4 115 136.78 115"/><polygon class="cls-26" points="89.39 115 113.09 91.31 136.78 115 89.39 115"/><polygon class="cls-29" points="160.46 91.33 136.76 115.03 113.06 91.33 160.46 91.33"/><polygon class="cls-26" points="113.06 91.33 136.76 67.63 160.46 91.33 113.06 91.33"/><polygon class="cls-26" points="184.13 115 160.43 138.7 136.73 115 184.13 115"/><polygon class="cls-27" points="136.73 115 160.43 91.31 184.13 115 136.73 115"/><path class="cls-28" d="M189.55,109.57,184.13,115l0,0h0v0h0L160.44,91.35h0l0,0h22a105.28,105.28,0,0,1,7.09,18.21Z"/><path class="cls-26" d="M174.21,77.57a104.76,104.76,0,0,1,8.24,13.76h-22l0,0L174.2,77.54Z"/><path class="cls-26" d="M192.5,123.42l-8.4-8.4,0,0h6.86q.94,4.13,1.55,8.36A.13.13,0,0,1,192.5,123.42Z"/><path class="cls-27" d="M190.94,115h-6.86l0,0h0l5.43-5.43v0Q190.32,112.26,190.94,115Z"/><polygon class="cls-26" points="33.27 171.09 33.3 171.12 18.37 186.04 18.34 186.01 18.35 186.01 18.37 186 18.48 185.88 18.48 162.34 23.69 162.34 33.27 171.09"/><polygon class="cls-28" points="18.48 157.59 23.69 162.34 18.48 162.34 18.48 157.59"/><polygon class="cls-26" points="65.74 138.68 65.71 138.71 65.38 139.03 48.38 156.03 48.35 156 28.03 138.68 65.74 138.68"/><polygon class="cls-29" points="65.73 138.68 28.03 138.68 22.83 134.25 22.8 134.22 42.01 115 42.02 115 42.04 114.97 42.07 115 42.07 115 65.71 138.65 65.73 138.68"/><polygon class="cls-26" points="89.41 162.34 73.94 177.81 73.91 177.79 55.79 162.34 89.41 162.34"/><polygon class="cls-27" points="89.41 162.34 55.79 162.34 48.38 156.03 48.35 156 65.68 138.68 65.69 138.68 65.71 138.65 65.73 138.68 65.74 138.68 89.38 162.31 89.4 162.34 89.41 162.34"/><polygon class="cls-26" points="89.4 162.34 89.41 162.34 89.38 162.38 89.35 162.34 65.71 138.71 65.71 138.69 65.69 138.68 65.74 138.68 89.38 162.31 89.4 162.34"/><polygon class="cls-26" points="113.08 138.68 113.07 138.69 113.06 138.68 113.08 138.68"/><polygon class="cls-29" points="65.71 138.65 65.73 138.68 65.69 138.68 65.71 138.65"/><polygon class="cls-29" points="113.07 138.66 113.07 138.68 113.06 138.68 89.4 115.02 89.38 115.03 89.36 115 89.38 114.97 89.4 115 89.4 115 89.41 115 113.07 138.66"/><polygon class="cls-29" points="113.1 185.97 113.13 186 113.12 186.01 113.09 186.04 113.07 186.03 113.06 186.01 108.21 181.16 89.39 162.34 89.41 162.34 109.42 182.35 113.1 185.97"/><polygon class="cls-29" points="136.79 162.34 136.76 162.38 136.73 162.34 136.79 162.34"/><polygon class="cls-26" points="89.4 162.34 89.41 162.34 89.39 162.34 89.4 162.34"/><polygon class="cls-26" points="136.79 162.34 136.73 162.34 113.07 138.69 113.06 138.68 113.07 138.68 113.07 138.66 113.09 138.65 113.11 138.68 113.12 138.68 136.76 162.31 136.79 162.34"/><polygon class="cls-28" points="160.46 138.68 160.44 138.71 136.79 162.34 136.76 162.38 113.07 138.69 113.06 138.68 160.46 138.68"/><polygon class="cls-27" points="113.06 138.67 136.76 114.98 160.46 138.67 113.06 138.67"/><polygon class="cls-29" points="184.13 162.34 184.11 162.38 160.46 186.01 160.44 186.04 160.43 186.04 160.41 186.01 160.4 186.01 136.76 162.38 136.74 162.34 184.13 162.34"/><polygon class="cls-27" points="136.73 162.35 160.43 138.65 184.13 162.35 136.73 162.35"/><path class="cls-26" d="M193.6,138.67v0a114.8,114.8,0,0,1-1,15.1.13.13,0,0,1,0,.06l-8.47,8.48h0l0,0,0,0L160.44,138.7l0,0Z"/><path class="cls-29" d="M193.6,138.67H160.41l0,0L184.08,115h0l0,0,0,0h0l8.35,8.36a.13.13,0,0,1,0,.06A105.08,105.08,0,0,1,193.6,138.67Z"/><path class="cls-26" d="M191.14,162.34c-.4,1.9-.87,3.77-1.38,5.62a.09.09,0,0,1,0,0l-5.64-5.64,0,0Z"/><path class="cls-28" d="M192.62,153.8a.13.13,0,0,1,0,.06c-.37,2.87-.87,5.7-1.47,8.48h-7.06l0,0h0Z"/><polygon class="cls-26" points="18.39 186.01 18.37 186.04 18.34 186.01 18.39 186.01"/><polygon class="cls-27" points="18.39 186.01 18.35 186.01 18.37 186 18.39 186.01"/><polygon class="cls-26" points="42.07 209.69 42.07 209.69 42.04 209.72 40.15 211.6 40.12 211.59 38 209.69 42.07 209.69"/><polygon class="cls-29" points="42.06 209.69 38 209.69 18.48 192.19 18.48 186.16 18.37 186.04 18.34 186.01 18.35 186.01 18.37 186 18.39 186.01 18.4 186.01 18.48 186.1 42.04 209.66 42.04 209.66 42.06 209.69"/><polygon class="cls-26" points="58.01 193.69 58.04 193.72 42.07 209.69 42.07 209.69 42.04 209.72 18.48 186.16 18.37 186.04 18.34 186.01 49.61 186.01 58.01 193.69"/><polygon class="cls-29" points="33.3 171.12 49.61 186.01 18.35 186.01 18.37 186 18.48 185.88 33.27 171.09 33.3 171.12"/><polygon class="cls-26" points="82.76 216.28 82.78 216.31 65.74 233.35 65.74 233.37 65.73 233.37 65.71 233.38 65.69 233.37 65.68 233.37 42.04 209.72 42.01 209.69 75.53 209.69 82.76 216.28"/><polygon class="cls-28" points="75.53 209.69 42.02 209.69 42.04 209.66 42.04 209.66 58.01 193.69 58.04 193.72 75.53 209.69"/><polygon class="cls-29" points="113.08 186.01 113.07 186.03 99.49 199.6 99.48 199.59 83.55 186.01 113.08 186.01"/><polygon class="cls-28" points="113.07 186 113.07 186.01 83.55 186.01 73.94 177.81 73.91 177.79 89.21 162.49 89.35 162.34 89.38 162.31 89.4 162.34 113.07 186"/><path class="cls-29" d="M136.79,209.68h0l0,0-23.64,23.65h0l0,0h0l-13.89-13.9h0c11.57-1.82,16.84-5.77,16.84-5.77l-4.7-4Z"/><polygon class="cls-27" points="136.78 209.69 111.32 209.69 99.49 199.6 99.48 199.59 113.06 186.01 113.07 186.01 113.07 186 113.09 186 113.11 186.01 113.12 186.01 136.76 209.66 136.78 209.69"/><polygon class="cls-26" points="136.79 209.69 136.79 209.69 136.76 209.72 136.74 209.69 113.09 186.04 113.07 186.03 113.06 186.01 113.12 186.01 136.76 209.66 136.78 209.69 136.79 209.69"/><polygon class="cls-26" points="160.46 186.01 160.44 186.04 160.43 186.04 160.41 186.01 160.46 186.01"/><polygon class="cls-26" points="113.13 186 113.14 186.01 113.07 186.01 113.07 186 113.09 186 113.1 185.97 113.13 186"/><polygon class="cls-26" points="160.45 186.01 160.4 186.01 136.73 162.34 136.74 162.34 136.76 162.31 136.79 162.34 160.43 186 160.44 186 160.45 186.01"/><path class="cls-29" d="M150.89,223.79l0,0-14.1-14.1,0,0h0Z"/><polygon class="cls-26" points="136.78 209.69 136.74 209.69 136.76 209.66 136.78 209.69"/><polygon class="cls-26" points="168.25 193.81 167.74 193.34 160.44 186.04 160.43 186.04 160.41 186.01 160.43 186 160.44 186 160.45 186.01 160.46 186.01 168.25 193.81"/><path class="cls-29" d="M182.84,186a99.82,99.82,0,0,1-8.23,13.62l-6.36-5.82-.51-.47-7.3-7.3h0l0,0Z"/><path class="cls-26" d="M189.76,168a.09.09,0,0,1,0,0,98.31,98.31,0,0,1-6.91,18H160.41l0,0h0l23.64-23.65,0,0,0,0h0Z"/><polygon class="cls-29" points="65.73 233.37 65.71 233.38 65.12 233.97 65.09 233.96 64.44 233.37 65.73 233.37"/><polygon class="cls-27" points="65.73 233.37 64.44 233.37 40.15 211.6 40.12 211.59 42.02 209.69 42.02 209.69 42.04 209.66 42.06 209.69 42.07 209.69 65.71 233.34 65.73 233.37"/><polygon class="cls-29" points="77 244.62 76.45 244.13 65.12 233.97 65.09 233.96 65.68 233.37 65.69 233.37 65.71 233.34 65.74 233.35 65.74 233.37 77 244.62"/><path class="cls-27" d="M113.07,233.36h0L102.41,244h0c-4.69.47-9.61.69-14.81.69H77.12l-.12-.11-.55-.49L65.71,233.38l0,0Z"/><path class="cls-29" d="M113.07,233.35H65.69l0,0,17.05-17.05,0,0,4.42,4a78.29,78.29,0,0,0,12-.88h0Z"/><path class="cls-26" d="M120.35,240.6h0a95.89,95.89,0,0,1-17.9,3.41l10.65-10.66h0l0,0,0,0h0Z"/><path class="cls-27" d="M137.32,233.36a78.6,78.6,0,0,1-17,7.24h0l-7.22-7.23h24.23Z"/><path class="cls-26" d="M150.89,223.79l0,0a90.24,90.24,0,0,1-13.54,9.55H113.07l0,0,23.65-23.64h0l0,0,0,0Z"/><path class="cls-1" d="M136.79,209.69l14.1,14.1,0,0a90.24,90.24,0,0,1-13.54,9.55,78.6,78.6,0,0,1-17,7.24h0a95.89,95.89,0,0,1-17.9,3.41h0c-4.69.47-9.61.69-14.81.69H77.12l-.12-.11-.55-.49L65.12,234l0,0-.65-.59L40.15,211.6l0,0L38,209.68,18.48,192.19v-6l-.11-.11,0,0h0l0,0,.11-.12V157.58l5.21,4.76,9.58,8.74,0,0L49.61,186l8.4,7.67,0,0,17.49,16,7.23,6.6,0,0,4.42,4a78.29,78.29,0,0,0,12-.88h0c11.57-1.82,16.84-5.77,16.84-5.77l-4.7-4L99.49,199.6h0L83.55,186l-9.61-8.2,0,0L55.79,162.34,48.38,156l0,0L28,138.67l-5.2-4.43,0,0-4.32-3.68V91.41L42,115l0,0h0l23.64,23.64,0,0h0l23.64,23.64,0,0,20,20L113.1,186l0,0h0l23.64,23.65,0,0h0Z"/><path class="cls-1" d="M193.6,138.67v0a114.8,114.8,0,0,1-1,15.1.13.13,0,0,1,0,.06c-.37,2.87-.87,5.7-1.47,8.48-.4,1.9-.87,3.77-1.38,5.62a.09.09,0,0,1,0,0,98.31,98.31,0,0,1-6.91,18,99.82,99.82,0,0,1-8.23,13.62l-6.36-5.82-.51-.47-7.3-7.3h0l0,0h0l-47.33-47.33h0L89.4,115h0l0,0h0L65.71,91.35l0,0h0L42,67.68,18.48,91.24V44.12L18.34,44h0l0,0,.11-.12V32.67h69.1a105.26,105.26,0,0,1,15.27,1.1s0,0,0,0a103.81,103.81,0,0,1,16.61,3.79,0,0,0,0,1,0,0A102.84,102.84,0,0,1,135.25,44a104.92,104.92,0,0,1,15.56,9.6l0,0A106.79,106.79,0,0,1,174.2,77.54v0a105.85,105.85,0,0,1,15.33,32v0q.76,2.69,1.39,5.43.94,4.13,1.55,8.36a.13.13,0,0,1,0,.06A105.08,105.08,0,0,1,193.6,138.67Z"/><path class="cls-1" d="M136.79,209.69l14.1,14.1,0,0a90.24,90.24,0,0,1-13.54,9.55,78.6,78.6,0,0,1-17,7.24h0a95.89,95.89,0,0,1-17.9,3.41h0c-4.69.47-9.61.69-14.81.69H77.12l-.12-.11-.55-.49L65.12,234l0,0-.65-.59L40.15,211.6l0,0L38,209.68,18.48,192.19v-6l-.11-.11,0,0h0l0,0,.11-.12V157.58l5.21,4.76,9.58,8.74,0,0L49.61,186l8.4,7.67,0,0,17.49,16,7.23,6.6,0,0,4.42,4a78.29,78.29,0,0,0,12-.88h0c11.57-1.82,16.84-5.77,16.84-5.77l-4.7-4L99.49,199.6h0L83.55,186l-9.61-8.2,0,0L55.79,162.34,48.38,156l0,0L28,138.67l-5.2-4.43,0,0-4.32-3.68V91.41L42,115l0,0h0l23.64,23.64,0,0h0l23.64,23.64,0,0,20,20L113.1,186l0,0h0l23.64,23.65,0,0h0Z"/><path class="cls-1" d="M193.6,138.67v0a114.8,114.8,0,0,1-1,15.1.13.13,0,0,1,0,.06c-.37,2.87-.87,5.7-1.47,8.48-.4,1.9-.87,3.77-1.38,5.62a.09.09,0,0,1,0,0,98.31,98.31,0,0,1-6.91,18,99.82,99.82,0,0,1-8.23,13.62l-6.36-5.82-.51-.47-7.3-7.3h0l0,0h0l-47.33-47.33h0L89.4,115h0l0,0h0L65.71,91.35l0,0h0L42,67.68,18.48,91.24V44.12L18.34,44h0l0,0,.11-.12V32.67h69.1a105.26,105.26,0,0,1,15.27,1.1s0,0,0,0a103.81,103.81,0,0,1,16.61,3.79,0,0,0,0,1,0,0A102.84,102.84,0,0,1,135.25,44a104.92,104.92,0,0,1,15.56,9.6l0,0A106.79,106.79,0,0,1,174.2,77.54v0a105.85,105.85,0,0,1,15.33,32v0q.76,2.69,1.39,5.43.94,4.13,1.55,8.36a.13.13,0,0,1,0,.06A105.08,105.08,0,0,1,193.6,138.67Z"/><path class="cls-1" d="M136.79,209.69l14.1,14.1,0,0a90.24,90.24,0,0,1-13.54,9.55,78.6,78.6,0,0,1-17,7.24h0a95.89,95.89,0,0,1-17.9,3.41h0c-4.69.47-9.61.69-14.81.69H77.12l-.12-.11-.55-.49L65.12,234l0,0-.65-.59L40.15,211.6l0,0L38,209.68,18.48,192.19v-6l-.11-.11,0,0h0l0,0,.11-.12V157.58l5.21,4.76,9.58,8.74,0,0L49.61,186l8.4,7.67,0,0,17.49,16,7.23,6.6,0,0,4.42,4a78.29,78.29,0,0,0,12-.88h0c11.57-1.82,16.84-5.77,16.84-5.77l-4.7-4L99.49,199.6h0L83.55,186l-9.61-8.2,0,0L55.79,162.34,48.38,156l0,0L28,138.67l-5.2-4.43,0,0-4.32-3.68V91.41L42,115l0,0h0l23.64,23.64,0,0h0l23.64,23.64,0,0,20,20L113.1,186l0,0h0l23.64,23.65,0,0h0Z"/><path class="cls-1" d="M193.6,138.67v0a114.8,114.8,0,0,1-1,15.1.13.13,0,0,1,0,.06c-.37,2.87-.87,5.7-1.47,8.48-.4,1.9-.87,3.77-1.38,5.62a.09.09,0,0,1,0,0,98.31,98.31,0,0,1-6.91,18,99.82,99.82,0,0,1-8.23,13.62l-6.36-5.82-.51-.47-7.3-7.3h0l0,0h0l-47.33-47.33h0L89.4,115h0l0,0h0L65.71,91.35l0,0h0L42,67.68,18.48,91.24V44.12L18.34,44h0l0,0,.11-.12V32.67h69.1a105.26,105.26,0,0,1,15.27,1.1s0,0,0,0a103.81,103.81,0,0,1,16.61,3.79,0,0,0,0,1,0,0A102.84,102.84,0,0,1,135.25,44a104.92,104.92,0,0,1,15.56,9.6l0,0A106.79,106.79,0,0,1,174.2,77.54v0a105.85,105.85,0,0,1,15.33,32v0q.76,2.69,1.39,5.43.94,4.13,1.55,8.36a.13.13,0,0,1,0,.06A105.08,105.08,0,0,1,193.6,138.67Z"/><path class="cls-1" d="M136.79,209.69l14.1,14.1,0,0a90.24,90.24,0,0,1-13.54,9.55,78.6,78.6,0,0,1-17,7.24h0a95.89,95.89,0,0,1-17.9,3.41h0c-4.69.47-9.61.69-14.81.69H77.12l-.12-.11-.55-.49L65.12,234l0,0-.65-.59L40.15,211.6l0,0L38,209.68,18.48,192.19v-6l-.11-.11,0,0h0l0,0,.11-.12V157.58l5.21,4.76,9.58,8.74,0,0L49.61,186l8.4,7.67,0,0,17.49,16,7.23,6.6,0,0,4.42,4a78.29,78.29,0,0,0,12-.88h0c11.57-1.82,16.84-5.77,16.84-5.77l-4.7-4L99.49,199.6h0L83.55,186l-9.61-8.2,0,0L55.79,162.34,48.38,156l0,0L28,138.67l-5.2-4.43,0,0-4.32-3.68V91.41L42,115l0,0h0l23.64,23.64,0,0h0l23.64,23.64,0,0,20,20L113.1,186l0,0h0l23.64,23.65,0,0h0Z"/><path class="cls-1" d="M193.6,138.67v0a114.8,114.8,0,0,1-1,15.1.13.13,0,0,1,0,.06c-.37,2.87-.87,5.7-1.47,8.48-.4,1.9-.87,3.77-1.38,5.62a.09.09,0,0,1,0,0,98.31,98.31,0,0,1-6.91,18,99.82,99.82,0,0,1-8.23,13.62l-6.36-5.82-.51-.47-7.3-7.3h0l0,0h0l-47.33-47.33h0L89.4,115h0l0,0h0L65.71,91.35l0,0h0L42,67.68,18.48,91.24V44.12L18.34,44h0l0,0,.11-.12V32.67h69.1a105.26,105.26,0,0,1,15.27,1.1s0,0,0,0a103.81,103.81,0,0,1,16.61,3.79,0,0,0,0,1,0,0A102.84,102.84,0,0,1,135.25,44a104.92,104.92,0,0,1,15.56,9.6l0,0A106.79,106.79,0,0,1,174.2,77.54v0a105.85,105.85,0,0,1,15.33,32v0q.76,2.69,1.39,5.43.94,4.13,1.55,8.36a.13.13,0,0,1,0,.06A105.08,105.08,0,0,1,193.6,138.67Z"/><path class="cls-1" d="M136.79,209.69l14.1,14.1,0,0a90.24,90.24,0,0,1-13.54,9.55,78.6,78.6,0,0,1-17,7.24h0a95.89,95.89,0,0,1-17.9,3.41h0c-4.69.47-9.61.69-14.81.69H77.12l-.12-.11-.55-.49L65.12,234l0,0-.65-.59L40.15,211.6l0,0L38,209.68,18.48,192.19v-6l-.11-.11,0,0h0l0,0,.11-.12V157.58l5.21,4.76,9.58,8.74,0,0L49.61,186l8.4,7.67,0,0,17.49,16,7.23,6.6,0,0,4.42,4a78.29,78.29,0,0,0,12-.88h0c11.57-1.82,16.84-5.77,16.84-5.77l-4.7-4L99.49,199.6h0L83.55,186l-9.61-8.2,0,0L55.79,162.34,48.38,156l0,0L28,138.67l-5.2-4.43,0,0-4.32-3.68V91.41L42,115l0,0h0l23.64,23.64,0,0h0l23.64,23.64,0,0,20,20L113.1,186l0,0h0l23.64,23.65,0,0h0Z"/><path class="cls-1" d="M193.6,138.67v0a114.8,114.8,0,0,1-1,15.1.13.13,0,0,1,0,.06c-.37,2.87-.87,5.7-1.47,8.48-.4,1.9-.87,3.77-1.38,5.62a.09.09,0,0,1,0,0,98.31,98.31,0,0,1-6.91,18,99.82,99.82,0,0,1-8.23,13.62l-6.36-5.82-.51-.47-7.3-7.3h0l0,0h0l-47.33-47.33h0L89.4,115h0l0,0h0L65.71,91.35l0,0h0L42,67.68,18.48,91.24V44.12L18.34,44h0l0,0,.11-.12V32.67h69.1a105.26,105.26,0,0,1,15.27,1.1s0,0,0,0a103.81,103.81,0,0,1,16.61,3.79,0,0,0,0,1,0,0A102.84,102.84,0,0,1,135.25,44a104.92,104.92,0,0,1,15.56,9.6l0,0A106.79,106.79,0,0,1,174.2,77.54v0a105.85,105.85,0,0,1,15.33,32v0q.76,2.69,1.39,5.43.94,4.13,1.55,8.36a.13.13,0,0,1,0,.06A105.08,105.08,0,0,1,193.6,138.67Z"/></g></g></svg>